<?xml version="1.0" standalone="no"?>
<!DOCTYPE svg PUBLIC "-//W3C//DTD SVG 1.1//EN" "http://www.w3.org/Graphics/SVG/1.1/DTD/svg11.dtd" >
<svg xmlns="http://www.w3.org/2000/svg" xmlns:xlink="http://www.w3.org/1999/xlink" version="1.1">
<metadata></metadata>
<defs>
<font id="manuel-fontfont" horiz-adv-x="20" >
<font-face units-per-em="2048" ascent="1638" descent="-410" />
<missing-glyph horiz-adv-x="860" />
<glyph horiz-adv-x="0" />
<glyph horiz-adv-x="682" />
<glyph unicode=" "  horiz-adv-x="860" />
<glyph unicode="&#x09;" horiz-adv-x="860" />
<glyph unicode="&#xa0;" horiz-adv-x="860" />
<glyph unicode="!" horiz-adv-x="471" d="M21 334.5q4 38.5 25 58.5q25 23 41.5 21.5t48.5 -31.5q28 -26 34 -56t-12 -48q-14 -14 -62 -14t-62 14q-17 17 -13 55.5zM179 752q-7 31 1 70t44 155q56 182 76 231q18 44 39 119q19 67 40 78q17 12 46 12q17 0 21.5 -8.5t4.5 -41.5q0 -44 -41 -148q-45 -107 -84 -233 t-49 -194q-9 -65 -26 -90.5t-42 -10.5q-19 13 -30 61z" />
<glyph unicode="#" horiz-adv-x="1355" d="M21 570q4 39 37.5 53.5t124.5 14.5q99 0 113 14t14 61v47l-71 14q-127 24 -127 74q0 49 44 70.5t146 21.5q56 0 70 5.5t31 33.5q22 34 47 101q29 81 44 102.5t46 23.5q59 6 70 -34.5t-29 -113.5l-32 -57l27 -31q56 -60 176 -1q40 20 58 42.5t59 103.5q54 110 83 139 q28 25 56 18q23 -6 46.5 -24.5t23.5 -30.5t-48 -85q-47 -76 -43 -95q9 -51 160 2q141 47 173 15q38 -38 -27 -66q-47 -20 -152 -41q-146 -31 -168 -39q-29 -11 -61 -46.5t-54 -80.5q-37 -74 -17.5 -99t109.5 -19q64 5 84.5 -3.5t20.5 -40.5q0 -28 -23 -40.5t-89 -21.5 q-75 -10 -108 -22.5t-61 -43.5q-73 -82 -99 -177q-17 -62 -44.5 -94t-50.5 -18q-46 31 2 148q25 62 29 108.5t-16 62.5q-17 15 -60 7q-3 0 -58.5 -5.5t-95 -13t-45.5 -16.5q-13 -15 -25 -71q-12 -49 -29.5 -79.5t-33.5 -30.5q-17 0 -42 25q-18 16 -21.5 31t0.5 54 q6 61 -6 73.5t-71 6.5q-54 -5 -72.5 9.5t-14.5 58.5zM405 664.5q3 -10.5 9 -15t24 -7.5t38 -3.5t59 -0.5h119l36 38q50 54 58.5 90t-23.5 67q-17 16 -35.5 21t-60.5 4q-91 -1 -142 -34t-73 -104q-6 -22 -9 -33.5t0 -22z" />
<glyph unicode="$" horiz-adv-x="905" d="M24 368q15 25 58.5 23t98.5 -28l68 -33l26 26q29 29 41 86q10 38 8.5 55.5t-15.5 40.5q-22 36 -60 59q-80 48 -108 102.5t-9 125.5q7 28 36.5 65t103.5 113q99 102 121 140.5t36 135.5q12 88 70 57q23 -13 37.5 -46.5t14.5 -76.5q0 -44 21 -41q25 4 57 68q15 31 26 69 q26 86 45 96q17 12 44 12q23 0 31 -31t-3 -80q-11 -44 -11 -112q0 -46 6 -60.5t32 -36.5q63 -50 76.5 -68t7.5 -41q-14 -55 -51 -67t-81 25q-47 40 -65.5 26t-40.5 -107q-23 -96 -15 -141.5t56 -99.5q42 -48 55 -79t13 -89q0 -120 -86 -172q-37 -22 -64 -82q-24 -56 -50 -80 l-2 -2q-17 -15 -23 -10q-9 5 -40 62l-1 1v1l-1 1v1l-1 2q-12 23 -58 23q-31 0 -41.5 -6.5t-22.5 -33.5q-17 -37 -42 -62q-16 -15 -26 -10t-45 47q-52 59 -112 92q-59 33 -94 76t-21 64zM272.5 782q-1.5 -29 16.5 -36q25 -9 44.5 17.5t19.5 68.5q0 47 -16.5 50.5t-41.5 -37.5 q-21 -34 -22.5 -63zM386 456q2 -54 13.5 -76t39.5 -22q32 0 43 22.5t11 88.5q0 83 -14 97q-16 16 -30 12.5t-37 -28.5q-17 -18 -22 -36t-4 -58zM436 775q-1 -32 4 -38t33 -6q35 0 51 14t16 45q0 33 14 91q8 35 7.5 50.5t-10.5 26.5q-13 16 -40.5 17t-37.5 -14 q-11 -17 -24 -83t-13 -103z" />
<glyph unicode="%" horiz-adv-x="815" d="M20 330q0 43 9 75t39 94q107 223 503 732q66 85 119 114q45 22 59.5 24.5t30.5 -12.5q25 -26 5.5 -62.5t-104.5 -127.5q-138 -145 -207.5 -231.5t-177.5 -247.5q-85 -127 -124 -203t-46 -130q-7 -53 -34.5 -86.5t-50.5 -19.5q-12 8 -16.5 24.5t-4.5 56.5zM38 1126 q0 48 48 108.5t103 81.5q19 7 29 7t33 -9q25 -10 51.5 -36t26.5 -41q0 -19 -50 -69.5t-94 -76.5q-147 -85 -147 35zM453.5 505.5q6.5 40.5 30 75t58.5 45.5q48 14 102.5 5.5t77.5 -34.5q41 -48 16.5 -121t-94.5 -111q-50 -27 -82 -28.5t-62 21.5t-41.5 65t-5 82.5z" />
<glyph unicode="&#x26;" horiz-adv-x="1038" d="M22.5 326.5q-6.5 52.5 13.5 119.5q13 45 35 76t98 110q66 68 88 96.5t31 56.5t13 91q12 143 123 293q53 70 84 96t75 37q63 16 146 -6.5t97 -59.5q12 -32 4.5 -81.5t-33.5 -101.5q-38 -73 -157 -195q-85 -86 -103 -111.5t-18 -58.5q0 -31 9.5 -48t47.5 -52 q58 -55 107 -67q52 -13 67 -18q21 -7 65 11t79 49q33 30 63 37t48 -11q17 -17 10 -35t-48 -65q-53 -57 -53 -79q0 -23 43 -46q81 -44 51 -80q-15 -17 -68 -17.5t-84 16.5q-39 22 -97 17t-105 -35q-108 -69 -228 -116t-186 -47q-99 0 -175 117q-36 55 -42.5 107.5zM169 374 q0 -36 7 -53t32 -42q36 -35 85.5 -37.5t120.5 26.5q54 22 108.5 56t54.5 46q0 20 -56 82.5t-97 88.5q-53 33 -80.5 36t-65.5 -20q-46 -28 -77.5 -81t-31.5 -102zM472 940q0 -30 4 -38t16 -6q27 5 96.5 103.5t69.5 132.5q0 29 -39 12q-27 -12 -61 -43q-49 -46 -67.5 -80.5 t-18.5 -80.5z" />
<glyph unicode="(" horiz-adv-x="425" d="M24 773q10 52 10 88q0 64 44 181.5t104.5 221t103.5 131.5q28 19 59.5 21.5t47.5 -13.5q16 -17 9.5 -34.5t-48.5 -67.5q-51 -62 -109 -176t-81 -196q-25 -88 -25 -233q1 -109 6.5 -137.5t37.5 -89.5q25 -47 45.5 -71.5t52.5 -44.5q56 -34 56 -61q0 -17 -8 -22t-36 -5 q-64 0 -130.5 67.5t-98.5 164.5q-25 76 -37 158t-3 118z" />
<glyph unicode=")" horiz-adv-x="438" d="M26 347.5q15 42.5 79 127.5q130 172 180 342.5t13 314.5q-10 37 -20.5 51.5t-37.5 27.5q-19 9 -35 24t-21 29q-10 26 -5.5 60.5t19.5 54.5q16 17 49.5 13t68.5 -27q41 -28 55 -55t30 -110q17 -90 16 -165t-22 -191q-33 -189 -82 -304t-132 -201q-55 -56 -88.5 -69.5 t-56.5 9.5q-25 26 -10 68.5z" />
<glyph unicode="*" horiz-adv-x="794" d="M21 975.5q-2 9.5 8 27.5q11 22 44 38t65 16q20 0 43 18t23 33q-2 16 -35 52l-35 41l26 27q21 22 51.5 24.5t62.5 -15.5q29 -16 65 -18q25 0 31.5 7.5t11.5 39.5q7 54 25 68.5t70 7.5q37 -5 52 -2.5t25 14.5q9 12 62 54q84 61 135 7q29 -31 22 -58.5t-53 -59.5 q-64 -43 -109.5 -87t-43.5 -59q4 -19 61 -19q56 0 69 -20q14 -23 -8 -40t-75 -24q-61 -7 -86 -34l-27 -30l32 -57q32 -58 32 -79q0 -24 -20 -36.5t-47 -6.5q-52 13 -65.5 8.5t-23.5 -40.5q-12 -41 -31.5 -56t-38 0.5t-26.5 56.5q-7 38 -23.5 44.5t-49.5 -16.5 q-41 -30 -51.5 -22.5t-4.5 60.5q6 58 -8.5 75t-62.5 9q-29 -4 -42 0t-30 22q-18 20 -20 29.5z" />
<glyph unicode="+" horiz-adv-x="884" d="M20 620q0 28 17 41t61 18t139 5q159 0 171 15q12 12 16 161q3 146 20 166q16 18 45 13t55 -30q15 -15 20 -43.5t7 -118.5q1 -50 2 -72t6.5 -45.5t9.5 -29.5t19.5 -10.5t29.5 -2t45 8.5q83 16 132 2t49 -53q0 -25 -10 -34.5t-44.5 -13t-101.5 1.5l-129 6l-36 -38 q-38 -42 -51 -89t-6 -123q5 -52 3.5 -71t-12.5 -29q-20 -17 -47 -10t-48 35q-22 30 -23 90t21 101q34 69 1 97q-23 19 -244 -6q-117 -14 -117 58z" />
<glyph unicode="," horiz-adv-x="493" d="M20 62q0 16 12 31t43 36q59 40 135 114t87 101q3 8 17.5 67t32.5 77q20 20 60 21t56 -17q33 -38 -34 -174q-49 -100 -168.5 -192.5t-199.5 -92.5q-27 0 -34 5t-7 24z" />
<glyph unicode="-" horiz-adv-x="860" d="M20 690q0 21 8 32t30 22q24 12 87 14t273 -2q263 -4 332 -10.5t84 -29.5q16 -25 -15.5 -48t-99.5 -37q-47 -10 -95.5 -11t-148.5 7q-149 11 -191 12t-124 -6q-76 -7 -108 6t-32 51z" />
<glyph unicode="." horiz-adv-x="333" d="M31 358q25 53 86 95q69 46 132.5 30t63.5 -78q0 -39 -38 -84t-81 -56q-39 -11 -88 -6.5t-69 20.5q-31 26 -6 79z" />
<glyph unicode="/" horiz-adv-x="811" d="M24 303q12 33 166 265q219 330 448 735q30 56 57 74q22 17 51.5 14.5t41.5 -21.5q11 -19 -46 -105q-39 -57 -145 -215.5t-169 -248.5q-163 -240 -238 -437q-26 -68 -49.5 -95t-59.5 -27q-35 0 -50.5 17t-6.5 44z" />
<glyph unicode="0" horiz-adv-x="765" d="M27 621q-17 132 11 278q22 117 61.5 222t86.5 171q19 28 71 60t93 43q41 10 105.5 2.5t96.5 -27.5q36 -22 78 -69.5t63 -89.5q28 -54 43.5 -133.5t5.5 -119.5q-12 -52 -12 -114q0 -58 -18 -145t-38 -125q-16 -34 -80 -129q-64 -96 -120.5 -129t-156.5 -33 q-87 0 -127.5 21.5t-86.5 94.5q-59 90 -76 222zM132.5 689q12.5 -142 46.5 -189q41 -55 142 -82.5t133 8.5q61 69 104.5 184.5t43.5 211.5q0 73 13 125q16 64 -10 157.5t-76 147.5q-16 17 -36.5 21.5t-82.5 4.5q-68 0 -85.5 -5.5t-44.5 -32.5q-39 -41 -80.5 -132t-58.5 -174 q-21 -103 -8.5 -245zM285 829q-1 41 13 58q14 16 51.5 17.5t52.5 -13.5q14 -14 14 -61.5t-14 -61.5q-15 -15 -52 -14t-50 17q-14 17 -15 58z" />
<glyph unicode="1" horiz-adv-x="888" d="M21 622.5q2 25.5 20 40.5q18 18 72 44q162 82 349 276q152 158 204 224.5t68 121.5q19 65 40 76q20 12 44.5 11t36.5 -13q17 -17 12.5 -65t-27.5 -87q-29 -51 -69 -153.5t-62 -180.5q-19 -72 -61 -186q-38 -102 -49.5 -158.5t-9.5 -133.5q1 -54 -3 -76.5t-19 -42.5 q-20 -25 -47 -29.5t-44 12.5q-27 27 2 152q2 8 20.5 89t29.5 125.5t28 106t30 91.5q21 54 21 75t-21 21q-15 0 -130 -117q-153 -153 -308 -258q-25 -17 -62 -19t-52 13t-13 40.5z" />
<glyph unicode="2" horiz-adv-x="909" d="M34 330q16 33 45.5 57t162.5 110q85 56 138 106t117 139q123 166 187 407q18 73 17 101t-23 28q-48 0 -104 -54.5t-105 -147.5q-47 -89 -69.5 -105t-56.5 16q-26 25 -24.5 63.5t31.5 81.5q81 120 145.5 179t146.5 89q69 26 114.5 6t62.5 -85q27 -100 -43 -280 q-69 -178 -161 -327t-170 -208q-49 -37 -53.5 -70t36.5 -54q34 -16 133.5 -20.5t163.5 7.5q55 11 109 6t54 -21q0 -17 -54 -42t-124 -41q-91 -20 -180 -13q-260 18 -293 16q-30 -2 -72 -21q-7 -3 -11 -5q-42 -19 -62.5 -23t-35.5 3q-57 26 -22 102z" />
<glyph unicode="3" horiz-adv-x="800" d="M26 268q-25 39 70 81q34 15 52.5 16t70.5 -11q60 -11 82 -10t67 7.5t80 6.5q58 1 117 30.5t89 73.5q17 25 22 50t5 84q0 61 -5.5 88t-26.5 64q-13 23 -34.5 48.5t-38.5 36.5q-30 20 -55 23t-126 -2q-59 0 -92.5 -2.5t-50 5.5t-21 19t-4.5 36q0 38 31 62q29 24 44 24 q63 0 126 50t90 120q25 67 25 104t-26.5 46.5t-80 -7.5t-139.5 -62q-58 -31 -111 -53.5t-66 -22.5q-22 0 -27 6.5t-5 33.5q0 25 11 40.5t50 47.5q52 42 135.5 86t140.5 61q60 16 94.5 13t70.5 -26q91 -63 91 -160q0 -46 -16 -96.5t-42 -87.5q-30 -42 -21 -75t66 -93 q68 -73 90 -135t22 -179q0 -102 -15 -153.5t-58 -99.5q-41 -44 -78.5 -62.5t-130.5 -40.5q-64 -16 -102 -19t-99 2q-102 9 -179 11q-80 1 -92 21z" />
<glyph unicode="4" horiz-adv-x="620" d="M27 744.5q19 101.5 119 329.5q144 331 169 353q18 14 44 13t38 -16q17 -21 -10 -96t-125 -283q-65 -138 -92 -219.5t-27 -143.5q0 -48 5.5 -61.5t32.5 -29.5q38 -23 120 -23q52 0 71 5t35 22q22 24 31 52t30 130q20 103 29 126t35 37q54 30 68 -46q5 -23 -27.5 -173.5 t-63.5 -245.5q-24 -73 -44 -182t-21 -172q-1 -74 -9 -106t-28 -45q-21 -12 -40 8q-17 16 -18.5 83.5t9.5 242.5q9 123 -5 141q-5 6 -32 13t-57 9q-68 7 -129 37t-84 69q-43 70 -24 171.5z" />
<glyph unicode="5" horiz-adv-x="751" d="M24 792.5q-13 38.5 18 139.5q27 87 41 176q19 145 103 201q37 25 147.5 61.5t199.5 52.5q170 31 194 -9q14 -23 -19 -49.5t-84 -33.5q-45 -7 -125.5 -33t-126.5 -49q-37 -18 -83 -61.5t-63 -75.5q-16 -30 -16 -76q0 -48 31.5 -72t124.5 -46q94 -23 130.5 -41.5 t77.5 -63.5q54 -60 52.5 -154t-58.5 -208q-100 -198 -331 -168q-41 5 -61.5 14t-43.5 32q-25 25 -31.5 42t-6.5 56q0 41 4 50t24 9q27 0 69 -52q28 -35 43.5 -43.5t46.5 -8.5q44 0 77.5 17.5t73.5 60.5q69 72 69 177q0 54 -25.5 95t-66 61t-93.5 18.5t-106 -28.5 q-60 -29 -108 -29q-65 0 -78 38.5z" />
<glyph unicode="6" horiz-adv-x="849" d="M20.5 465q-0.5 75 26.5 161q75 236 245 457.5t360 330.5q41 23 96 26.5t71 -16.5q15 -17 11 -56q-2 -27 -18.5 -40t-91.5 -50q-78 -39 -128 -71.5t-102 -78.5q-64 -58 -157.5 -206t-93.5 -191q0 -14 5 -19t18 -1.5t38 16.5q42 23 133.5 22t143.5 -26q47 -21 71 -60.5 t14 -79.5q-8 -34 -39 -87t-67 -92q-57 -63 -157 -112.5t-170 -49.5q-41 0 -98.5 32.5t-79.5 67.5q-30 48 -30.5 123zM145 470q0 -61 25.5 -86.5t84.5 -25.5q100 0 197 92q129 122 40 176q-42 25 -84 18.5t-111 -48.5q-38 -24 -82 -34q-46 -10 -58 -26t-12 -66z" />
<glyph unicode="7" horiz-adv-x="913" d="M20 1145q0 37 26.5 54.5t117.5 42.5q66 18 239 80t228 77q28 7 85.5 -1t69.5 -20q20 -19 22 -81.5t-15 -123.5q-20 -86 -25 -141q-4 -57 10.5 -75t68.5 -25q19 -2 32.5 -8.5t13.5 -11.5q0 -13 -67 -42q-95 -41 -150 -109.5t-97 -198.5q-50 -154 -95 -247q-12 -26 -53 -26 q-27 0 -32.5 5.5t-5.5 32.5q0 37 16 60q13 21 36 88q24 70 48 118q27 53 27 87.5t-27 60.5l-29 27l-114 -33q-122 -35 -179 -30t-57 51q0 50 46.5 70.5t159.5 20.5q128 0 202.5 44t122.5 148q30 65 36.5 137t-15.5 90q-30 25 -174 -25.5t-266 -128.5q-55 -36 -111 -36 q-52 -1 -73.5 15t-21.5 54z" />
<glyph unicode="8" horiz-adv-x="843" d="M22 440q6 74 67 182t138 184q30 27 39 45t9 46q0 40 -18 78q-39 76 -19.5 150t104.5 165q58 61 95.5 89.5t74.5 38.5q30 9 117 5q50 -2 71 -9t39 -26q18 -17 22 -27.5t-4 -21.5q-22 -36 -137 -37q-69 -2 -98 -17q-34 -18 -77 -65.5t-65 -91.5q-18 -37 -19 -50t12 -41 q19 -41 35 -46q7 -2 37.5 13.5t64.5 39.5q273 192 294 182q43 -16 -23 -77q-30 -28 -87 -71q-77 -57 -142.5 -124.5t-72.5 -95.5q-6 -32 16 -127q22 -89 23 -153t-16 -132q-29 -111 -91 -159.5t-177 -49.5q-123 0 -172.5 47.5t-39.5 155.5zM147 401q0 -22 40.5 -44t81.5 -22 q28 0 45.5 9t49.5 40l51 49v129q0 89 -4.5 113t-22.5 42q-27 25 -40.5 23t-44.5 -35q-46 -49 -101 -156.5t-55 -147.5z" />
<glyph unicode="9" horiz-adv-x="899" d="M21 315q-5 23 47 39.5t133.5 29.5t167.5 28.5t159 47.5t98 76q30 52 40 337q6 155 -8 173.5t-98 -36.5q-209 -135 -313 -70q-53 32 -58 91t38.5 126.5t123.5 121.5q70 47 114.5 68t115.5 41q54 16 157.5 13.5t123.5 -19.5q20 -16 14.5 -43.5t-45.5 -106.5l-50 -96 l-7 -259q-5 -207 -18 -270.5t-64 -138.5q-21 -30 -38 -47.5t-40.5 -32.5t-67.5 -26.5t-96 -22t-148 -26.5q-156 -27 -216 -26.5t-65 28.5zM294 1030q13 -23 68 -18q53 6 101 33t109 84q121 113 87 154q-15 17 -33.5 15t-99.5 -31q-55 -20 -86 -39.5t-68 -55.5 q-102 -101 -78 -142z" />
<glyph unicode=":" horiz-adv-x="239" d="M22 365q7 39 35 61q20 14 57 14t48 -17t1 -60q-9 -43 -32.5 -70.5t-51.5 -27.5q-31 0 -47.5 30.5t-9.5 69.5zM83 988q34 34 64 34q28 0 53 -26.5t19 -49.5q-7 -30 -7 -37q0 -15 -31.5 -50t-44.5 -35q-15 0 -51 34q-69 63 -2 130z" />
<glyph unicode=";" horiz-adv-x="698" d="M20 -58q-1 6 15 23q14 18 104 62q67 31 105 70.5t80 121.5q22 44 47 121.5t34 126.5q5 39 32 66q25 22 40 21.5t38 -26.5l26 -29l-25 -85q-41 -136 -139 -291t-166 -193q-42 -23 -92 -25t-78 18q-20 13 -21 19zM482.5 936.5q9.5 35.5 56.5 66.5q26 17 68.5 18.5 t57.5 -13.5q22 -23 9 -69t-51 -77q-21 -17 -60 -14.5t-59 22.5q-31 31 -21.5 66.5z" />
<glyph unicode="&#x3c;" horiz-adv-x="749" d="M20 697q0 38 20 66.5t77 71.5q17 13 75.5 58t86.5 67q43 35 91.5 72t84 66t80.5 71q94 89 135 48q16 -17 12.5 -42.5t-24.5 -45.5q-30 -27 -158.5 -130t-170.5 -140q-71 -61 -104 -85q-17 -12 -29.5 -27t-12.5 -21q0 -20 42.5 -49.5t144.5 -79.5q129 -64 227.5 -124 t115.5 -83q40 -59 -19 -114q-36 -34 -51 -34q-17 0 -71 50q-71 63 -221 159.5t-208 116.5q-49 16 -86 55t-37 74z" />
<glyph unicode="=" horiz-adv-x="772" d="M21 499q-5 38 28.5 51t154.5 19q109 5 152 4t122 -11q98 -12 162.5 -48.5t64.5 -79.5q0 -29 -47.5 -32.5t-158.5 16.5q-123 22 -271 22q-122 0 -162.5 11.5t-44.5 47.5zM138 915q-4 25 8.5 42t38.5 22q19 4 277 4q207 -1 248.5 -11.5t41.5 -60.5q0 -36 -17.5 -51 t-61.5 -15t-136 14q-88 14 -140.5 15.5t-127.5 -8.5q-122 -14 -131 49z" />
<glyph unicode="&#x3e;" horiz-adv-x="847" d="M25 349q11 43 34 56q44 23 242 200q213 188 258 241q49 58 26 84q-15 18 -92 43q-54 17 -149 75.5t-116 69.5q-54 26 -80 54q-22 25 -22.5 65.5t21.5 63.5q23 25 40 20.5t65 -47.5q91 -82 183 -133.5t220 -94.5q114 -39 142 -65q22 -21 28.5 -52.5t-5.5 -62.5 q-4 -8 -61 -55.5t-128 -99.5q-205 -155 -285 -225t-158 -167q-45 -55 -60.5 -66t-43.5 -9q-42 3 -56 34q-14 28 -3 71z" />
<glyph unicode="?" horiz-adv-x="659" d="M22.5 1223.5q4.5 13.5 25.5 39.5q35 44 108.5 93t120.5 60q53 13 160.5 7.5t133.5 -22.5q41 -27 55 -63.5t13 -112.5q-2 -89 -20 -144q-23 -59 -80.5 -130t-116.5 -111q-135 -92 -154 -162q-7 -35 -20.5 -49.5t-37.5 -14.5q-36 0 -44 22t9 78q10 37 25.5 62t47.5 55 q9 9 63 58.5t83 76.5q91 84 108 116q16 30 16 100q0 47 -6 63t-31 41q-46 42 -71.5 51.5t-63.5 -2.5q-111 -35 -192 -112q-92 -86 -129 -24q-7 11 -2.5 24.5zM41 329q0 34 22.5 64t61.5 50q42 20 49 20q16 0 40.5 -29t24.5 -47q0 -47 -50.5 -79t-110.5 -22q-25 4 -31 11 t-6 32z" />
<glyph unicode="@" horiz-adv-x="1398" d="M20 515q0 48 27 136t58 136q94 153 243.5 299t271.5 206q40 20 114 46t118 36q22 5 88 7q118 2 201.5 -42.5t147.5 -142.5q113 -175 84 -335q-20 -112 -90.5 -226t-155.5 -171q-44 -30 -67 -36t-90 -6q-60 1 -88 7t-69 27q-52 26 -104.5 27.5t-130.5 -20.5 q-47 -14 -79 -7.5t-64 36.5q-22 21 -27 35.5t-1 51.5q7 66 48 140.5t105 136.5q100 96 209.5 130t143.5 -20q15 -25 2 -110.5t-40 -138.5q-27 -54 -25.5 -76.5t34.5 -57.5q25 -25 41 -31.5t54 -6.5q55 0 94 22t74 73q107 156 107 294q0 53 -38.5 140t-80.5 130 q-183 189 -562 -94q-264 -199 -366 -401q-23 -48 -29 -77t-6 -101q0 -109 29 -196q25 -74 48 -117.5t52.5 -72.5t74.5 -36.5t100.5 -3.5t143.5 22q94 18 144 15t87 -31q43 -31 -19 -52q-26 -9 -75 -18q-124 -22 -206.5 -33t-153 -11t-113 11t-78.5 39.5t-58.5 67t-44.5 99.5 q-83 229 -83 301zM524 601.5q11 -33.5 61 -33.5q35 0 78 42.5t72.5 103.5t29.5 110q0 22 -4.5 28.5t-20.5 5.5q-43 -1 -74 -30t-118 -146q-35 -47 -24 -80.5z" />
<glyph unicode="A" horiz-adv-x="774" d="M25 460q10 46 68 218q123 361 199 519.5t179 266.5q45 48 85 48q12 0 23 -4q49 -18 99 -123q20 -41 27.5 -79t13.5 -126q8 -129 22 -286q12 -135 12 -180.5t-11 -166.5q-9 -102 -21.5 -133.5t-43.5 -31.5q-29 0 -43.5 33.5t-19.5 112.5q-4 60 -9.5 83t-21.5 38 q-17 17 -30 19t-48 -7q-27 -7 -52 -7q-24 0 -46 6q-44 12 -81 12q-43 0 -75 -17q-29 -15 -59 -67.5t-40 -104.5q-11 -61 -50 -89q-19 -14 -36 -13q-18 0 -34 15q-11 11 -11 34q0 13 4 30zM298 849q0 -22 26 -46q18 -17 41.5 -21.5t101.5 -4.5q117 0 131 14q16 16 16 124 q0 52 -4 126q-11 227 -37 269q-12 14 -36 14q-25 0 -39 -14q-32 -40 -116 -233.5t-84 -227.5z" />
<glyph unicode="B" horiz-adv-x="903" d="M38 611q25 93 25 127q0 39 59 340q60 306 102 344q15 14 35 16q7 1 17 0q21 0 58 -3q39 -4 61 -4q14 0 21 2q17 4 58 36q59 45 113 45q33 0 67 -18q86 -46 123 -188q11 -42 11 -77q0 -19 -3 -35q-9 -48 -46 -93q-36 -47 -36 -69q0 -16 50.5 -66.5t66.5 -50.5q9 0 35 -43 q27 -42 27 -113q-1 -60 -19 -102t-78 -123q-75 -102 -174 -128q-42 -11 -99 -11q-76 0 -177 20q-90 17 -115.5 18t-49.5 -11q-33 -17 -75 -18t-55 15q-20 23 -20 73q0 46 18 117zM216 670q-2 -26 -2 -45q0 -50 10 -61q16 -16 88.5 -29t145.5 -13l89 -1l59 62q68 69 80 105 q5 13 4 31q0 30 -13 73q-14 47 -49 68q-36 22 -141 22q-98 -1 -163.5 -23.5t-86.5 -63.5q-15 -34 -21 -125zM284.5 1028q0.5 -13 11.5 -25q11 -11 25 -11t51 8q109 25 204 111q31 27 38 43.5t7 58.5q0 36 -5.5 53.5t-21.5 32.5q-23 22 -35.5 22.5t-47.5 -17.5 q-101 -53 -149.5 -103.5t-68.5 -126.5q-9 -33 -8.5 -46z" />
<glyph unicode="C" horiz-adv-x="829" d="M21 777q1 62 27 162q26 95 55 153.5t99 153.5q54 73 116.5 126t148.5 100q70 39 114 39l1 -1q44 0 82 -39q49 -54 49 -90q0 -17 -10 -30q-9 -11 -27 -13h-11q-19 0 -55 4q-32 3 -52 3q-14 1 -22 -1q-19 -4 -54 -29q-60 -42 -140.5 -131.5t-108.5 -145.5 q-23 -47 -29 -80.5t-8 -127.5q-1 -28 -1 -53q0 -98 10 -134q13 -45 49.5 -83.5t65.5 -38.5q80 0 239 77q108 52 176 52q19 0 35 -4q39 -11 39 -47q0 -5 -1 -10q-5 -37 -146 -94.5t-286 -82.5q-63 -10 -94 -10q-2 0 -3 -1q-30 0 -63 9q-83 22 -113 59t-60 154q-22 88 -22 149 v5z" />
<glyph unicode="D" horiz-adv-x="1003" d="M36 505q-14 34 -14 85q0 53 15 123q46 206 47 483q1 170 20 211q16 36 52 65.5t78 39.5q18 5 64 5q23 0 53 -1q78 -5 233 -44.5t203 -65.5q84 -47 144 -198q52 -131 52 -256q0 -19 -1 -37q-4 -56 -13 -88.5t-37 -85.5q-64 -123 -179.5 -210.5t-252.5 -118.5 q-82 -18 -152 -18q-20 0 -38 2q-86 6 -191 45q-41 15 -57 27.5t-26 36.5zM169 600l38 -40q25 -25 39 -31.5t36 -2.5q61 9 133 17q115 13 159.5 31.5t108.5 81.5q76 74 102 147.5t26 217.5q0 110 -12.5 148t-65.5 87q-42 41 -85.5 62t-115.5 36q-79 16 -154 16h-9 q-79 -1 -112 -21q-24 -15 -31.5 -31t-12.5 -65q-26 -211 -37 -479z" />
<glyph unicode="E" horiz-adv-x="866" d="M20 556q0 45 33.5 199t65.5 256q41 132 41 140q0 17 45 124.5t58 123.5q46 50 216 95q114 29 219 29q55 0 106 -8q46 -8 42 -28q-5 -27 -76 -48q-19 -6 -40 -10q-55 -11 -157 -43q-61 -20 -89.5 -37t-75.5 -64q-84 -83 -84 -132q0 -14 7 -25q8 -12 34 -15q16 -2 48 -2 q22 0 52 1t53 1q32 0 48 -2q26 -3 36 -14t10 -20t-10 -26q-29 -55 -215 -100q-80 -19 -118.5 -45t-56.5 -74.5t-25 -144.5q-3 -36 -3 -56q0 -17 2 -24q4 -16 33 -46q37 -38 80 -39h2q44 0 173 35q132 36 169 41t51 -12q16 -20 9.5 -46t-31.5 -38q-48 -25 -165 -66.5 t-194 -60.5q-66 -17 -96 -20.5t-56 3.5q-55 15 -98 75t-43 123z" />
<glyph unicode="F" horiz-adv-x="856" d="M24 558q10 88 55 289q27 115 47 233q13 90 41 269q5 40 22 57q15 12 114 23q105 14 253 52q124 33 182 35h11q51 0 75 -24q11 -11 11 -21q0 -16 -27 -29q-35 -18 -131 -43q-31 -9 -113 -31t-107 -29l-81 -22l-52 -102q-31 -60 -42.5 -96t-13.5 -79q-1 -22 -1.5 -36 t1.5 -26.5t5.5 -19t13 -11t19.5 -4.5t29 3t39 8l52 13q88 23 107 25t36 -12q22 -20 22 -36q0 -19 -79.5 -66t-154.5 -72q-87 -29 -125 -59q-24 -20 -29.5 -41.5t-9.5 -106.5q-4 -75 -9.5 -106.5t-21.5 -57.5q-32 -49 -72 -53h-6q-35 0 -51 40q-12 31 -12 79q0 26 3 57z" />
<glyph unicode="G" horiz-adv-x="1062" d="M21 689q-1 18 -1 37q0 171 68 342q74 189 207 317q61 58 104 86.5t91 40.5q28 7 73 7q27 0 59 -3q89 -6 106 -22q16 -17 6.5 -37t-41.5 -36q-45 -21 -120 -57q-101 -47 -191 -135.5t-137 -185.5q-31 -65 -39 -98.5t-10 -106.5q-1 -23 -1 -43q0 -61 9 -91q13 -38 63 -87 q41 -39 94 -59q35 -12 64 -12q15 0 29 3q35 9 102.5 74t67.5 90q0 24 -15.5 36.5t-60.5 25.5q-44 13 -61.5 37.5t-1.5 54.5q17 31 164.5 104.5t193.5 73.5q49 0 93.5 -34.5t70 -87t33.5 -115.5q2 -16 2 -31q0 -45 -17 -87q-16 -43 -45 -71t-58 -28q-53 0 -53 63q0 38 19 98 q15 46 14.5 59.5t-16.5 44.5q-15 28 -27 37t-38 10q-7 1 -14 1q-35 0 -45 -18q-6 -11 -6 -32.5t6 -54.5q8 -38 8 -74q0 -145 -125 -256q-59 -53 -123 -73t-177 -20q-86 0 -113.5 5.5t-71.5 30.5q-37 20 -58 41t-41 58q-24 42 -31 72.5t-9 105.5z" />
<glyph unicode="H" horiz-adv-x="917" d="M25 600q3 16 9 49.5t14.5 83.5t13.5 79q46 264 88.5 428.5t70.5 184.5q20 16 57 16q52 -1 63 -43q4 -14 4 -33q0 -41 -16 -109q-25 -99 -25 -153q0 -42 15 -56q14 -14 145 -14h130l30 36q13 16 20.5 27t12.5 28t7 24.5t6 36t7 44.5q16 88 40 156.5t47 93.5 q26 29 56.5 30.5t55.5 -24.5q22 -23 21.5 -37.5t-26.5 -96.5q-83 -266 -136 -625q-9 -64 -9 -91t10 -49q17 -42 20 -84q4 -32 -1 -47t-28 -38q-35 -34 -68 -34q-11 0 -23 4q-44 16 -58 82q-3 16 -3 52q1 33 3 83q4 106 14 188q4 37 0.5 52t-20.5 33q-16 17 -33.5 22.5 t-56.5 5.5q-65 0 -111.5 -15.5t-95.5 -52.5q-56 -43 -72 -93q-13 -40 -13 -130q0 -22 1 -48q1 -37 1 -63q0 -40 -2 -56q-3 -27 -18 -42q-21 -24 -58 -24h-3q-39 1 -55 26q-36 57 -36 132q0 29 5 61z" />
<glyph unicode="I" horiz-adv-x="555" d="M20 482q0 38 16 113q16 78 60 251q60 242 84.5 316.5t45.5 83.5t55.5 7t45.5 -13q13 -14 13 -42q0 -15 -4 -33q-10 -53 -54 -163q-57 -143 -75 -216t-18 -163q0 -91 -7.5 -131.5t-29.5 -62.5q-19 -21 -58 -23.5t-55 15.5q-19 22 -19 61zM238 1540.5q0 36.5 30 65.5 q31 31 82 31q49 2 49 -8q0 -9 52 -36q42 -22 66.5 -51t16.5 -49q-5 -15 -44 -35.5t-80 -29.5q-18 -4 -36 -4q-26 0 -50 8q-41 14 -63.5 43t-22.5 65.5z" />
<glyph unicode="J" horiz-adv-x="1216" d="M34 545q18 35 72 37h8q55 0 165 -27q112 -28 170 -29q4 -1 7 -1q54 0 97 21q23 11 29 24t8 58v11q0 70 -34 193q-46 171 -62.5 256.5t-16.5 149.5q-2 83 -15 96t-102 13q-85 0 -130 13.5t-68 44.5q-21 30 -22 42t16 34q13 16 58 19q31 1 148 1h106h86q219 0 248 9 q29 8 100 8q26 0 57 -1q196 -8 227 -66q11 -20 11 -57q0 -5 -1 -10q-1 -45 -13 -57q-17 -17 -56 -12.5t-66 26.5q-40 33 -69 43t-82 10q-63 -1 -121.5 -30t-89.5 -75q-23 -34 -23 -89q0 -54 20 -210q5 -36 14.5 -116t18 -138t18.5 -112q10 -50 10 -88q0 -47 -16 -74 q-29 -48 -137 -73q-75 -18 -139 -18q-8 0 -15 1q-71 2 -210 29q-151 28 -194 58q-24 18 -24 44q0 19 12 42z" />
<glyph unicode="K" horiz-adv-x="845" d="M20 806q0 51 14 163q17 152 21 298q9 182 25 200q15 18 40.5 19t48.5 -15q16 -11 19.5 -50t3.5 -203t3 -201.5t19 -46.5q13 -7 21 -3t24 26q28 39 222 235t233 225q28 21 54 29.5t42 2.5t16 -26q0 -23 -64 -100t-221 -243q-66 -70 -103.5 -111.5t-66.5 -82t-38 -62.5 t-5 -47.5t17.5 -44t41.5 -45.5q70 -66 132 -106q62 -41 118.5 -102t64.5 -94q5 -18 0.5 -31t-21.5 -30q-19 -19 -29 -21.5t-28 7.5q-28 15 -45 45q-22 38 -104.5 110t-156.5 118q-27 17 -43.5 26t-31.5 16t-23 5t-14.5 -6t-9.5 -18.5t-4.5 -30.5t-1.5 -44q-2 -99 -3 -112 q0 -25 -35 -64q-23 -26 -33 -29.5t-30 7.5q-29 16 -38 35q-6 13 -17.5 166.5t-13.5 235.5z" />
<glyph unicode="L" horiz-adv-x="796" d="M26 441q-5 14 -5 37q0 30 8 77q14 83 72 348q23 97 47 209q62 277 89 306q17 18 53.5 21.5t53.5 -12.5q15 -15 15 -51q0 -60 -41 -180q-65 -194 -97 -414q-16 -107 -16 -168q0 -65 18 -80q14 -11 127 -11q26 0 57 1q107 2 146.5 7.5t79.5 23.5l60 28l37 -26 q47 -34 47 -72q0 -9 -2 -17q-12 -48 -84 -70q-39 -12 -231 -26.5t-322 -14.5q-38 0 -69 23t-43 61z" />
<glyph unicode="M" horiz-adv-x="1179" d="M24 550q8 66 66 332q40 178 46 207q23 103 40 142t72 113q51 67 83 86q16 9 31 9q16 1 32 -9q30 -20 77 -88q33 -49 57.5 -72.5t63.5 -43.5q48 -25 76 -26t59 21t92 86q37 40 84.5 80.5t76.5 58.5q58 36 96 40q6 1 10 0q30 0 52 -22q24 -24 24 -56q0 -41 -37 -95 q-43 -66 -91 -163q-90 -177 -127 -306.5t-37 -267.5q0 -108 -7.5 -150.5t-29.5 -65.5q-23 -23 -63 -24h-3q-38 0 -60 22q-17 19 -17 54v7q2 40 29 184q49 259 60 329q7 45 7 67q0 12 -2 17q-6 16 -21.5 15t-85.5 -21q-27 -8 -51 -8q-30 0 -57 12q-49 20 -125 93 q-53 50 -74.5 64t-32.5 7q-16 -11 -55 -120.5t-77 -251.5q-33 -129 -34 -238q-2 -115 -10 -139q-8 -31 -32.5 -42t-51 2t-40.5 45q-15 37 -15 82q0 17 2 34z" />
<glyph unicode="N" horiz-adv-x="1142" d="M22.5 422q4.5 30 16.5 66.5t42 120.5q135 382 157 614q9 92 28 111t74 19h10q64 -2 95 -25q29 -21 51.5 -84.5t32.5 -152.5q15 -126 58 -227.5t82 -105.5q18 -2 31.5 12.5t44.5 68.5q74 127 132.5 264.5t58.5 182.5q0 40 15 81.5t38 66.5t61 30t58 -14q16 -15 14 -54.5 t-23 -88.5q-175 -455 -250 -658q-43 -116 -64 -151.5t-55 -51.5q-24 -12 -46 -12q-34 0 -64 27q-26 22 -58.5 77.5t-38.5 87.5q-10 52 -58 167t-61 120q-4 2 -9 2q-27 1 -54 -63q-32 -74 -97 -306q-40 -145 -55 -163q-37 -49 -79 -49q-31 0 -64 26q-16 13 -22 22.5 t-1.5 39.5z" />
<glyph unicode="O" horiz-adv-x="1087" d="M20 643v175q0 127 4.5 159.5t29.5 79.5q32 60 94.5 144.5t112.5 132.5q47 44 90 58t135 14q90 0 163 29q69 29 126 29q63 0 111 -35q93 -66 146 -232q32 -98 35 -129v-11q0 -30 -12 -82q-30 -132 -136 -342q-70 -137 -145.5 -198t-209.5 -89q-72 -16 -100 -16h-2 q-28 0 -102 19q-112 25 -179 72.5t-114 134.5zM172 805q0 -28 10 -77q32 -149 111 -203q43 -30 129 -30q0 1 2 1q88 0 147 30q108 55 213.5 214t112.5 278q1 19 1 37q0 58 -12 108q-16 65 -49 101l-36 37h-116q-123 -1 -194.5 -30.5t-165.5 -119.5q-51 -47 -89 -119.5 t-54 -149.5q-10 -49 -10 -77z" />
<glyph unicode="P" horiz-adv-x="778" d="M20.5 445.5q1.5 27.5 17.5 103.5q25 116 25 176q0 43 25 149t49 164q22 54 85 139.5t109 124.5q66 55 114 99q58 51 83 66q29 20 72 20q1 -1 2 -1q44 0 66 -22q23 -23 45.5 -71.5t35.5 -102.5q8 -33 7 -66q0 -60 -24 -122q-38 -98 -125 -179q-96 -88 -175 -88 q-53 0 -127 -77q-30 -30 -40.5 -60t-31.5 -134q-25 -121 -40 -157.5t-44 -43.5q-21 -6 -41 -6q-18 0 -33 5q-33 10 -46 36q-10 20 -8.5 47.5zM294 936q16 -17 50 -18h4q32 0 62 15q73 37 175 198q51 79 58 119q1 7 1 15q0 32 -26 57t-39 23.5t-56 -32.5q-47 -33 -109 -117 q-61 -86 -98 -164q-26 -56 -26 -81q0 -10 4 -15z" />
<glyph unicode="Q" horiz-adv-x="1075" d="M21 816q2 56 30 145q36 110 106.5 212.5t154.5 165.5q146 109 269 142q42 11 84 11l78 -10q81 -20 129 -77q47 -55 114.5 -251t67.5 -277q0 -58 -27 -146.5t-63 -147.5q-49 -80 -49 -99q0 -15 35 -76t67 -101q22 -28 25 -67.5t-17 -55.5t-49.5 1t-60.5 63q-35 48 -85 98 l-54 51l-120 -10q-110 -10 -242 -10h-27q-57 0 -81 3q-31 5 -62 21q-84 44 -130 106.5t-73 168.5q-20 78 -20 131v9zM253 699q16 -64 45 -116.5t58 -67.5q32 -16 84 -16q26 0 58 4q93 13 128 50q18 20 19 28.5t-13 31.5q-17 30 -19 65t13 50q17 16 44.5 12.5t54.5 -26.5 t54.5 -38t40.5 -15q12 0 36 38q21 34 23 104v17q0 62 -13 128q-14 75 -42.5 147.5t-63.5 110.5q-16 17 -37 21t-92 4q-90 0 -130.5 -17t-74.5 -67q-26 -36 -71 -85q-40 -43 -60 -87.5t-38 -130.5q-10 -47 -10 -87q0 -31 6 -58z" />
<glyph unicode="R" horiz-adv-x="905" d="M21 549q2 30 17 89q32 131 41 183.5t16 153.5q12 148 25.5 212t41.5 108q38 60 131.5 118t178.5 73q20 4 40 4q76 0 162 -51q68 -41 111.5 -85.5t71.5 -103.5q27 -54 27 -100q0 -49 -35 -116q-20 -37 -45 -56t-116 -67l-133 -70q-1 -18 -3.5 -52t-3.5 -52l115 -111 q109 -105 146 -136q19 -15 25 -30t6 -46q0 -48 -15.5 -63.5t-62.5 -15.5q-34 0 -54.5 11t-69.5 57q-20 17 -69 59.5t-66 57.5q-64 55 -118 136q-39 58 -55 72t-42 14q-38 0 -50 -14q-20 -25 -29 -93q-5 -41 -5 -84q0 -29 2 -59q3 -35 3 -59q1 -34 -5 -49q-10 -26 -47 -26 q-31 0 -74.5 45.5t-55.5 89.5q-8 26 -6 56zM299 987q17 -17 33 -21t52 0q62 6 131 40t115.5 79.5t46.5 81.5q0 35 -24.5 73.5t-59.5 60.5q-37 23 -85 23h-2q-46 0 -81 -22q-33 -21 -72.5 -76.5t-61.5 -113.5q-20 -51 -20 -74q0 -24 28 -51z" />
<glyph unicode="S" horiz-adv-x="942" d="M20 1091q2 42 31 96q47 93 163.5 175t248.5 116q62 16 112 16q33 0 63 -8q72 -18 93 -73q5 -15 5 -28q0 -29 -30 -43q-24 -11 -63 -11q-32 0 -75 7q-53 8 -85 8q-19 0 -30 -3q-28 -7 -105 -77.5t-95 -106.5q-17 -32 -17 -101q0 -22 0.5 -35t5.5 -26.5t10.5 -20t22 -14 t32 -10t48 -5.5t64 -4.5t85.5 -2.5q67 -2 98.5 -3.5t68.5 -6.5t51.5 -9.5t37.5 -18.5t37 -27.5t41 -41.5q84 -85 84 -176q0 -16 -3 -31q-17 -107 -145 -192q-86 -56 -166 -74q-76 -17 -234 -17h-18q-189 2 -234 15q-68 18 -84 80q-4 15 -5 30q0 44 38 78q37 34 76 34h3 q40 -2 90 -40q59 -44 86.5 -54.5t90.5 -10.5q46 0 75.5 7t73.5 29q81 41 102.5 66t21.5 78q0 36 -5.5 53t-20.5 31q-37 34 -76 42t-163 8q-136 0 -208.5 16.5t-113 57t-65.5 121.5q-18 58 -18 97v10z" />
<glyph unicode="T" horiz-adv-x="1122" d="M21 1335q-5 30 15 46q41 36 379 48q170 7 249.5 14.5t216.5 29.5q76 13 120 13h13q44 -2 65 -24q24 -27 24 -51q-1 -22 -19 -43q-40 -44 -131 -44q-31 0 -113 -14l-76 -15v-46q0 -92 -57 -318q-47 -183 -55 -259q-2 -21 -2 -42q0 -55 15 -109q17 -62 17 -88t-22 -49 q-25 -26 -80 -27h-4q-52 0 -83 25q-37 28 -39 76v8q0 48 25 146q22 89 33.5 154.5t31.5 226.5q20 159 20.5 195.5t-16.5 55.5q-23 26 -56.5 42t-50.5 9q-19 -8 -113 -17q-94 -11 -141 -25q-25 -7 -47 -7q-50 0 -89 36q-25 23 -30 53z" />
<glyph unicode="U" horiz-adv-x="890" d="M23 944q12 233 58 351q22 57 58 71q11 4 21 5q25 0 49 -24q22 -22 22 -77q0 -45 -15 -112q-39 -168 -39 -272q0 -42 6 -73q14 -65 14 -118q0 -34 7 -50.5t31 -38.5q42 -39 72.5 -50t97.5 -11h82l33 50q30 43 74 173t59 221q14 83 14 210q0 77 -5 171v8q0 42 19 71 q21 32 58 38q19 4 37 4q14 0 30 -3q32 -6 45 -22q18 -22 19 -162v-16q0 -131 -16 -227q-45 -266 -122 -456q-90 -215 -218 -263q-40 -15 -87 -15q-104 0 -243 73q-70 37 -94.5 69t-45.5 115q-24 93 -24 243q0 55 3 117z" />
<glyph unicode="V" horiz-adv-x="985" d="M38 1197q18 11 50 11q53 0 105 -62t132 -222q76 -151 107 -195.5t61 -44.5q22 0 47 25.5t34 56.5q10 31 56 122q41 81 71 166.5t30 119.5q0 47 28 120.5t58 105.5q23 24 39.5 32.5t39.5 8.5q40 0 56 -19q12 -14 12 -42q0 -10 -2 -20q-6 -44 -33 -120q-99 -269 -175 -451 q-17 -42 -44.5 -110t-46 -114t-26.5 -67q-12 -35 -31 -68.5t-32 -44.5q-31 -26 -72 -26q-14 0 -30 3q-61 12 -96 62q-19 31 -58 131q-41 104 -107 237t-108 195q-81 120 -81 174q0 25 16 36z" />
<glyph unicode="W" horiz-adv-x="1312" d="M21 1159q6 87 59 93h8q48 0 76 -68q30 -74 31 -214q0 -117 26 -203q21 -70 41 -92t43 -2q20 16 75.5 98.5t81.5 133.5q30 60 49.5 76.5t60.5 16.5q48 0 70 -23q16 -17 39.5 -109.5t24.5 -140.5q0 -37 23 -72q14 -23 26.5 -31t35.5 -8q49 0 82 50t90 210 q121 343 159.5 440.5t57.5 112.5q20 14 57.5 13t50.5 -17q8 -10 -1.5 -46.5t-45.5 -136.5q-69 -193 -134 -381q-112 -324 -143.5 -401.5t-64.5 -107.5q-37 -33 -69 -36h-7q-31 0 -77 20q-46 21 -95.5 90.5t-77.5 152.5q-25 73 -45 79q-2 1 -4 1q-20 0 -53 -50 q-141 -202 -164 -216q-14 -9 -63 -9q-48 0 -86 31q-39 33 -54 76.5t-15 127.5q0 93 -35 265q-34 165 -34 252q0 13 1 25z" />
<glyph unicode="X" horiz-adv-x="1243" d="M30 286q-10 17 -10 36q0 29 22 62q29 44 396 426q57 60 82 89.5t39 57t10.5 43.5t-17.5 43q-16 29 -66 78q-81 77 -81 162q0 89 46 121q21 15 45 15q28 -1 60 -21q58 -38 91 -128q26 -69 55 -97q21 -20 30.5 -21t37.5 12q16 8 39 28t39 40q54 66 116.5 131t96.5 90 q45 34 81 34q31 0 54 -25q25 -27 24.5 -47.5t-26.5 -49t-98 -87.5q-109 -90 -160.5 -142t-72.5 -93q-27 -54 -27 -101q0 -43 22 -80q20 -32 70 -67.5t97 -50.5q46 -16 84 -54q43 -39 43 -83q0 -40 -36 -75q-21 -21 -38 -27.5t-50 -6.5q-39 0 -59.5 12t-80.5 71 q-35 34 -64.5 68.5t-35.5 49.5q-17 46 -53.5 79.5t-68.5 33.5q-23 0 -39.5 -10.5t-43.5 -43.5q-48 -58 -137 -154q-87 -93 -126.5 -144.5t-70.5 -110.5q-34 -66 -58.5 -86.5t-70.5 -20.5q-66 0 -90 44z" />
<glyph unicode="Y" horiz-adv-x="1030" d="M20 431q0 27 24 54t139 128q99 87 121 175q7 28 7 58q0 67 -33 147q-56 140 -117 232q-22 32 -22 64q0 17 5 33q18 49 68 49q30 0 55 -28t63 -103q92 -183 137 -183q21 0 63 41.5t130 151.5q57 70 141 158q54 56 73 67.5t55 11.5q47 0 64 -14.5t17 -54.5 q0 -41 -26.5 -79.5t-165.5 -198.5q-34 -38 -134 -171q-81 -110 -196 -229q-68 -69 -100.5 -113t-74.5 -124q-57 -108 -90.5 -139.5t-92.5 -31.5q-35 0 -50.5 5.5t-32.5 25.5q-27 34 -27 68z" />
<glyph unicode="Z" horiz-adv-x="1144" d="M20 448q0 8 79.5 95t186.5 194q219 223 295 311t117 167q29 56 29 74q0 27 -68 32q-41 3 -195 3q-239 0 -284 13q-40 11 -57 41t-3.5 61t52.5 45q30 11 140 11q138 0 401 -17q138 -9 203.5 -25.5t81.5 -47.5q11 -20 13 -41t-7.5 -49.5t-30 -62t-58 -81t-87 -104 t-121.5 -133.5q-63 -69 -169 -187q-22 -27 -55.5 -58.5t-57.5 -48.5q-23 -16 -39 -32t-16 -22q0 -14 29 -41q21 -18 39 -21q6 -1 17 -1q24 0 74 4q103 11 314 11h55q101 0 130 -3q37 -4 60 -21q20 -15 27.5 -30t8.5 -46q3 -42 -7.5 -58t-43.5 -22q-21 -4 -63 -3q-23 0 -52 1 q-216 6 -371 6q-231 0 -323 -14q-73 -10 -108 -10q-16 0 -24 2q-27 7 -69.5 47.5t-42.5 60.5z" />
<glyph unicode="[" horiz-adv-x="821" d="M22 20q6 45 38 127q51 130 86.5 288.5t83.5 467.5q11 70 17 106t16.5 78.5t16 60t21 39t26 27.5t36.5 14t47 10t62 5q113 9 177 32q37 14 72.5 20.5t57 4t21.5 -13.5q0 -18 -45 -67.5t-75 -64.5q-36 -19 -123 -33q-44 -8 -68.5 -13t-47.5 -15.5t-33 -20t-21 -31t-16 -44 t-12 -63.5q-61 -340 -142 -683q-11 -45 -16 -67t-9 -48.5t-4.5 -36.5t5 -22t11.5 -14t22.5 -4.5t30.5 -1t43 4.5q178 19 207 -10q11 -12 11.5 -20.5t-9.5 -26.5q-14 -28 -34 -38q-15 -6 -161 -18t-209 -12q-50 -1 -69.5 18.5t-13.5 64.5z" />
<glyph unicode="\" horiz-adv-x="679" d="M27 1266.5q-15 70.5 7 90.5q23 23 60 9.5t52 -50.5q3 -7 32.5 -82.5t53.5 -136t35 -81.5q24 -47 112.5 -195t129.5 -207q85 -127 118 -191t33 -102q0 -46 -14 -62.5t-52 -16.5q-39 0 -65.5 30t-79.5 135q-64 127 -161 289q-83 137 -121 208t-66 142q-59 150 -74 220.5z " />
<glyph unicode="]" horiz-adv-x="817" d="M22.5 -10q7.5 22 49.5 61q41 39 83.5 56.5t144.5 34.5q86 15 114.5 48.5t47.5 144.5q49 283 100 500q57 239 64.5 282t-4.5 52q-10 11 -38.5 13.5t-117.5 -1.5q-56 -1 -89 -2t-50.5 5t-22.5 14.5t-5 27.5q0 31 29.5 45t113.5 21q122 10 177 19q84 12 111 10.5t46 -22.5 q22 -25 21.5 -53.5t-22.5 -86.5q-104 -267 -174 -719q-52 -332 -78 -370q-37 -59 -213 -73q-104 -8 -182 -34q-44 -16 -62.5 -18.5t-28.5 6.5q-22 17 -14.5 39z" />
<glyph unicode="a" horiz-adv-x="690" d="M20 514q0 47 49 121t132 153q73 69 117.5 87.5t139.5 18.5q68 0 88.5 11.5t20.5 49.5q0 32 -36 84t-58 52q-44 0 -224 -109q-69 -42 -102 -42q-30 0 -46 18t-4 38q16 26 107.5 71t229.5 95q37 14 69 14q44 0 77 -28q56 -46 82 -176q7 -35 7 -66q-1 -9 -1 -17 q-2 -38 -17 -138q-25 -151 -31 -211q-5 -49 -18 -69t-40 -20q-57 0 -57 93q0 33 7 79q8 51 8 70v6q-2 15 -21 36q-31 31 -61 42q-22 10 -36.5 7t-51.5 -25q-50 -28 -115 -88.5t-82 -93.5q-16 -30 -16 -67q0 -43 41.5 -62.5t132.5 -19.5q185 0 184 -31v-3q-5 -30 -62 -47 t-151 -18q-76 0 -103.5 5t-56.5 23q-46 28 -74 71t-28 86z" />
<glyph unicode="b" horiz-adv-x="761" d="M22 433q4 68 80 426q18 88 55.5 200.5t70.5 177.5q34 68 73 185q38 111 58 137q18 20 44.5 21t41.5 -17q10 -12 10 -34q-1 -28 -17 -73q-30 -80 -126 -254q-51 -90 -55 -146q-1 -23 10 -23q3 0 84 31q55 22 79 24q5 0 10 1q25 0 74 -8q76 -11 120.5 -35.5t76.5 -73.5 q20 -29 25 -52.5t6 -82.5q0 -128 -55.5 -243t-132.5 -146q-38 -14 -173 -37q-119 -18 -156 -32t-65 -51q-28 -36 -45 -37.5t-51 30.5q-43 40 -43 100q1 6 1 12zM213 521l119 1q82 1 123 8t64.5 24t42.5 55q18 37 24.5 70.5t7.5 101.5q2 39 2 64t-2 36q-4 22 -22 43 q-17 17 -35 22.5t-63 5.5q-51 0 -66.5 -6.5t-51.5 -42.5q-46 -49 -72 -98q-22 -44 -46.5 -131t-24.5 -120v-33z" />
<glyph unicode="c" horiz-adv-x="690" d="M21 502q-1 6 -1 13q0 63 50 180q41 98 81.5 165t97.5 129q56 60 94 88.5t75 38.5q21 5 46 4q21 0 45 -2q53 -8 79 -25q31 -23 34 -63v-8q0 -35 -23 -57q-25 -23 -42 -22.5t-48 26.5q-33 27 -55 27h-6q-24 -4 -65 -46q-130 -140 -186 -281q-28 -71 -29 -119q0 -47 28 -72 q32 -30 106 -41q34 -5 69 -5q41 0 83 7q87 14 128 31q38 16 60 16q15 0 24 -7q17 -15 -24 -45q-2 -2 -4 -3q-31 -21 -119 -57.5t-126 -43.5q-9 -2 -22 -2q-43 0 -124 19q-105 24 -151 50q-69 41 -75 105z" />
<glyph unicode="d" horiz-adv-x="999" d="M21.5 488q-1.5 19 6.5 59q43 194 263 406q103 100 156 119q51 18 105 18q33 0 67 -7q89 -18 101 -66q3 -14 3 -26q-1 -33 -27 -47q-20 -11 -54 -10q-28 0 -65 7q-43 9 -64 9h-7q-20 -2 -62 -21q-59 -28 -106.5 -84t-101.5 -161q-58 -114 -58 -160q0 -6 1 -12 q8 -36 78 -36q12 0 25 1q67 4 166 54q77 39 103 45t43 -10q5 -5 5 -12q0 -17 -28 -48q-40 -43 -110 -85t-131 -58q-48 -12 -94 -12q-46 -1 -88 11q-86 24 -113 81q-12 26 -13.5 45zM654 487q18 92 94 331q24 79 81 370q12 53 12 118q0 83 27 151q20 52 46 52q19 0 42 -29 t23 -62.5t-26 -143.5q-8 -34 -28 -116.5t-33 -134t-31.5 -119t-34.5 -115.5q-21 -60 -29.5 -108.5t-12.5 -138.5q-9 -147 -23 -165q-14 -16 -51.5 -18t-52.5 13q-11 12 -11 44q-1 28 8 71z" />
<glyph unicode="e" horiz-adv-x="757" d="M22 466.5q5 29.5 35 121.5q45 141 89 208q67 105 164 179t201 100q38 10 66 10q9 0 16 -1q32 -4 65 -29q79 -56 79 -142q0 -9 -1 -18q-13 -135 -122 -204q-54 -35 -155 -61.5t-176 -26.5q-65 0 -90 -24.5t-25 -87.5q0 -61 19 -75q10 -8 34 -7q20 0 50 5q95 20 195.5 34.5 t134.5 14.5q29 0 36.5 -4.5t7.5 -20.5t-12.5 -27t-48.5 -26q-120 -52 -174.5 -65t-154.5 -13h-29q-60 -1 -84 3q-28 4 -58 23q-45 29 -57 73q-10 31 -5 60.5zM282 763.5q-16 -34.5 1 -49.5q2 -2 9 -2q26 0 118 20q116 26 145 41q49 25 63 85q4 16 3 30q0 38 -26 62 q-29 27 -56.5 23t-86.5 -42q-58 -38 -106 -85.5t-64 -82z" />
<glyph unicode="f" horiz-adv-x="757" d="M21 408q1 38 18 177q10 73 23 192q16 128 47 261t60 192q41 82 96.5 131.5t165.5 102.5q122 57 179 87q51 27 83 27q6 0 11 -1q34 -6 34 -49q0 -30 -36 -54t-152 -71q-119 -47 -172 -87.5t-89 -111.5q-26 -51 -26 -80q0 -17 9 -26q14 -13 49 -13q32 0 81 10q57 12 86 12 q10 0 17 -2q24 -6 24 -44q0 -28 -34 -47t-111 -33q-48 -8 -77 -16.5t-54 -27.5t-37.5 -41.5t-23 -68.5t-15 -97.5t-8.5 -138.5q-7 -161 -25.5 -217t-62.5 -56q-33 0 -50 29q-11 23 -10 61z" />
<glyph unicode="g" horiz-adv-x="911" d="M20 -8q0 36 29 44q15 4 52 4q32 0 80 -3q54 -3 87 -3q20 0 32 1q33 3 88 21q83 28 128 60t70 82q18 36 21 54.5t-5 50.5q-11 51 -11 117q0 47 -4 56.5t-24 9.5q-28 0 -37 -12q-11 -18 -102.5 -74t-124.5 -65q-30 -8 -58 -8q-43 0 -77 21q-56 35 -74 117q-8 35 -8 60v12 q3 28 20 100q22 94 63 163t115 138q58 54 104.5 76t147.5 44q83 17 171 17h27q87 -5 112 -12.5t40 -35.5q10 -18 8 -30.5t-18 -41.5q-98 -176 -121.5 -270.5t-30.5 -344.5q-6 -207 -18 -248t-75 -61q-43 -13 -159 -73q-80 -41 -110 -50q-26 -7 -75 -7h-12q-59 0 -136.5 17.5 t-100.5 34.5q-14 14 -14 39zM244 636q-16 -45 -16 -81q0 -50 32 -81l29 -28l97 50q122 62 176.5 123t81.5 164q15 54 15 83q0 5 -1 8q-2 30 -24 52q-22 21 -66 24q-8 1 -16 1q-35 0 -60 -13q-28 -15 -103 -90q-108 -103 -145 -212z" />
<glyph unicode="h" horiz-adv-x="825" d="M24 371q-6 25 1 60t36 125q33 98 118 425q75 296 103.5 399.5t38.5 115.5q14 14 53 14h40l-4 -66q-5 -66 -48 -161q-46 -105 -62 -180q-45 -210 -58 -252q-9 -34 9 -33q32 1 187 118q127 95 179.5 125t91.5 30q26 0 56 -28.5t39 -61.5q1 -5 1 -14q0 -43 -24 -174 q-31 -160 -34 -311q-2 -112 -7 -137.5t-29 -49.5q-22 -24 -40 -24q-27 0 -41 57q-7 26 -7 84q0 49 5 121q10 158 36 344q7 53 -14 53q-24 -1 -104 -61q-109 -84 -180.5 -173.5t-156.5 -252.5q-42 -78 -63.5 -108t-39.5 -36q-14 -5 -27 -5q-40 0 -55 57z" />
<glyph unicode="i" horiz-adv-x="526" d="M26 492q-6 30 -6 62q0 73 28 162q30 96 78 192t82 128q31 30 46 31t41 -24q25 -24 25 -52t-26 -59q-49 -59 -98 -184t-49 -191q0 -106 93 -106q91 0 155 55q32 26 62 26q10 0 20 -3q33 -9 27 -41q-2 -8 -7 -17q-10 -17 -65.5 -57t-109.5 -68q-30 -15 -87 -15q-8 1 -17 1 q-70 2 -103 22q-71 42 -89 138zM296 1356q-11 19 -11 36q0 20 16 35q14 14 49 14q8 -1 16 -1q48 -4 69 -25q26 -24 26 -40q0 -17 -33.5 -39.5t-60.5 -22.5q-47 1 -71 43z" />
<glyph unicode="j" horiz-adv-x="1026" d="M28.5 -17q15.5 29 57.5 57q30 20 60.5 26.5t117.5 12.5q110 7 148.5 18.5t72.5 46.5q31 34 89 130t69 132q14 45 68 324q55 281 78 310q18 23 45 26.5t44 -16.5q14 -15 14 -53q0 -67 -41 -203q-21 -68 -37 -117t-27.5 -86.5t-31.5 -107.5q-27 -96 -69 -205.5t-78 -178.5 q-30 -55 -57 -78.5t-73 -33t-147 -13.5q-99 -4 -136.5 -9.5t-69.5 -22.5q-43 -22 -62 -23.5t-34 15.5q-16 20 -0.5 49zM901 1400q0 36 14 50q15 15 28 12.5t36 -24.5q27 -25 27 -64q0 -27 -5.5 -32.5t-32.5 -5.5q-39 0 -53 14t-14 50z" />
<glyph unicode="k" horiz-adv-x="722" d="M20 375q0 27 26 91.5t105 229.5q83 176 165 383t105 300q27 109 49 133t45 24q9 0 19 -4q33 -14 33 -61q0 -62 -33.5 -145t-118.5 -231q-19 -32 -20.5 -44.5t11.5 -23.5q11 -11 24 -12t44 6q28 6 52 6q58 0 88 -38q24 -29 24 -62q0 -83 -146 -196q-29 -23 -51 -45 q-23 -24 -23 -38q0 -30 40 -104q44 -82 83 -117q42 -40 92 -69q45 -24 62 -51.5t1.5 -46t-58.5 -18.5q-42 0 -102 35.5t-101 83.5q-10 13 -42.5 51.5t-45.5 54.5q-48 56 -58 75q-8 14 -17 14q-24 0 -58 -88q-3 -10 -7 -21q-36 -95 -55 -122q-23 -30 -54.5 -33t-54.5 20.5 t-23 62.5z" />
<glyph unicode="l" horiz-adv-x="456" d="M44 512q75 266 141 429q20 48 62 207.5t53 230.5q10 53 31 79q20 25 47 28.5t44 -17.5q14 -18 14 -57q0 -30 -8 -72q-19 -98 -70 -202q-26 -53 -86.5 -236t-76.5 -259q-18 -81 -29 -189q-9 -107 -23 -125q-13 -16 -51.5 -17t-50.5 15q-21 25 -21 64t24 121z" />
<glyph unicode="m" horiz-adv-x="1327" d="M20.5 325.5q-0.5 10.5 15.5 46.5q67 165 116 356q69 277 107 319q18 20 49 22t53 -14.5t14 -44.5q-11 -41 30 -39q25 2 69 19q99 40 169 39q92 0 136 -66q29 -46 52 -46q21 0 90 41q101 61 187 80q33 7 60 7q42 0 68 -18q23 -15 52 -59q19 -33 19 -81q0 -15 -2 -29 q-7 -66 -55 -262q-31 -120 -46.5 -165.5t-34.5 -65.5q-20 -22 -30.5 -26.5t-23.5 3.5q-30 18 -30 77q0 40 14 99q23 94 49 228q19 92 19 130q0 7 -1 12q-4 33 -39 38h-1q-22 0 -116 -55q-98 -57 -138 -95q-64 -61 -98 -194q-12 -47 -60.5 -100.5t-79.5 -53.5q-49 0 -55 44 q-1 7 -1 16q0 47 28 143q29 101 29 173q0 81 -26 96q-7 4 -19 4q-28 0 -81 -27q-58 -30 -88.5 -67.5t-52.5 -103.5q-27 -82 -60 -131q-33 -54 -87 -160q-49 -100 -75 -126q-23 -23 -51.5 -22t-53.5 27q-20 21 -20.5 31.5z" />
<glyph unicode="n" horiz-adv-x="851" d="M20 410q-1 8 0 17q0 39 13 85q33 118 116.5 305.5t106.5 197.5q10 3 34.5 3t64.5 -3q31 -3 53 -3q13 0 23 1q26 3 64 19q62 26 107 35q28 5 52 5q120 0 159 -118q19 -55 19 -100q0 -14 -2 -28q-8 -54 -63 -160q-58 -109 -87 -156q-20 -32 -28 -64q-9 -35 -22 -49.5 t-36 -14.5q-53 0 -53 63q0 25 47 151t82 195q21 42 21 74q0 37 -27 62q-17 16 -31 20.5t-36 -0.5q-35 -6 -123 -47t-112 -62q-24 -22 -63.5 -105t-70.5 -177q-39 -113 -64 -163q-17 -33 -28 -43.5t-35 -12.5q-39 -4 -55 10q-22 17 -26 63z" />
<glyph unicode="o" horiz-adv-x="831" d="M30 480q-8 28 -9 64q0 42 12 96q37 162 135 271.5t243 150.5q52 15 111 14q21 0 42 -1q83 -7 126 -35q121 -80 121 -207q0 -38 -11 -81q-15 -59 -61 -153t-78 -132q-49 -58 -144 -103.5t-192 -57.5q-31 -4 -58 -4q-33 0 -61 6q-48 12 -88 47q-70 63 -88 125zM142 590v-14 q0 -66 18 -101q32 -59 106 -68q13 -2 25 -2q63 0 133 37q102 54 174.5 138t97.5 176q9 33 9 62q0 32 -11 60q-20 53 -77 81q-26 14 -58 14h-11q-38 -3 -108 -28q-110 -37 -166 -85.5t-108 -148.5q-22 -45 -24 -121z" />
<glyph unicode="p" horiz-adv-x="960" d="M45 -77q-25 17 -25 54q0 46 39 123q55 109 91.5 238.5t43.5 240.5q7 113 35 209t65 135q21 22 37 25q6 2 18 2q20 0 58 -4q5 0 14 -1q21 -2 37 -2q25 0 38 5q22 9 100 69q11 9 18 14q52 40 108 40q19 0 38 -5q77 -17 148 -101q31 -37 31 -77v-8q-3 -44 -43 -114 q-37 -63 -105 -135.5t-148 -132.5q-76 -60 -143 -120q-53 -48 -70 -57t-47 -4h-1h-1l-1 1h-1h-1q-47 8 -69 8q-11 0 -15 -2q-13 -6 -22 -44q-1 -4 -2 -12l-1 -3q-21 -93 -34 -163q-16 -83 -38 -125.5t-55 -57.5q-26 -12 -48 -12q-26 0 -49 16zM357 492q13 -16 33 -16 q19 0 44 16q51 30 161 141q111 111 143 169q16 29 16 52q0 22 -15 37q-14 14 -37 14q-25 -1 -119.5 -50t-124.5 -77q-52 -47 -89 -152q-22 -63 -22 -98q0 -24 10 -36z" />
<glyph unicode="q" horiz-adv-x="784" d="M22 556q12 106 116 260q46 68 148 139t181 91q41 10 77 10q101 0 171 -74q38 -41 45 -74q3 -10 3 -21q0 -26 -13 -60q-18 -48 -75 -145q-7 -11 -36.5 -62t-42.5 -72q-38 -65 -92 -201.5t-54 -167.5q0 -45 -22.5 -127.5t-43.5 -115.5q-9 -13 -12.5 -18.5t-10.5 -12 t-11 -7.5t-14.5 -3t-19 -1.5t-27.5 1.5q-48 2 -58 8t-12 32v7q0 34 25 63q32 41 52 82q21 42 48 134q20 73 20 92q0 6 -1 7q-2 3 -11 3q-16 0 -58 -10q-33 -7 -62 -7q-27 0 -51 6q-48 14 -92 58q-69 69 -69 158q0 13 2 28zM170 554q-1 -14 -1 -26q0 -47 15 -63 q14 -14 47 -14q8 0 17 1q47 4 77 25q65 44 105.5 94t90.5 150q68 140 68 153q0 18 -21 35q-20 18 -33 17.5t-65 -20.5q-79 -32 -158 -100.5t-114 -135.5q-23 -46 -28 -116z" />
<glyph unicode="r" horiz-adv-x="686" d="M33 504q23 110 87 297.5t89 213.5q23 25 51.5 28.5t54.5 -16.5q19 -15 55.5 -16.5t49.5 11.5q13 14 87 52q72 39 112 39q25 0 38 -16q9 -11 9 -22q0 -39 -95 -89q-145 -76 -210 -163t-134 -296q-61 -183 -77 -213q-15 -23 -54 -26t-56 18q-21 26 -21 84q0 47 14 114z" />
<glyph unicode="s" horiz-adv-x="628" d="M28 406q-15 19 1 39q17 19 48 17t121 -28q100 -29 127 -29q33 0 81 59q40 48 40 75q0 6 -2 11q-5 16 -83.5 56t-120.5 49q-118 25 -134 109q-2 12 -2 24q0 72 81 149q98 93 221 125q44 12 81 12q28 0 52 -7q55 -16 67 -65q10 -41 -14 -52q-15 -7 -52 -7q-24 0 -58 3 q-33 2 -57 2q-41 0 -61 -6q-32 -10 -86 -63q-37 -36 -46.5 -65t11.5 -45q10 -10 93 -38q76 -25 132 -63t76 -79q15 -27 17 -43.5t-7 -49.5q-16 -58 -42.5 -93t-75.5 -62q-60 -32 -128 -34h-8q-64 0 -117 28q-60 29 -98 40q-42 12 -57 31z" />
<glyph unicode="t" horiz-adv-x="638" d="M21 946q6 21 80 47q63 22 100 58.5t59 95.5t40 93.5t52 81.5q36 49 63 49q45 0 53 -36q2 -7 1 -14q0 -30 -28 -64q-29 -35 -43 -88q-6 -24 -7 -41q0 -20 9 -31q10 -11 30 -13q6 -1 16 -1q23 0 66 4q46 4 68 4q9 0 14 -1q18 -2 23 -16q9 -21 -22.5 -49t-73.5 -38 q-48 -12 -99 -12q-37 0 -52.5 -7.5t-42.5 -37.5q-36 -41 -80.5 -165t-44.5 -186q0 -47 22.5 -86.5t61.5 -64.5q35 -22 59 -22h3q26 2 75 30q36 20 50 23.5t25 -6.5q18 -20 18 -42q0 -13 -6 -25q-14 -36 -65.5 -66.5t-106.5 -30.5q-71 0 -147.5 45.5t-99.5 100.5 q-15 36 -15 109v10q1 80 18 124q20 58 23 99q5 38 -2 52t-48 50q-47 41 -47 62q0 3 1 5z" />
<glyph unicode="u" horiz-adv-x="806" d="M22 584q-1 32 -1 58q0 39 2 62q3 39 17 81q33 105 75 153q31 36 63 36q11 0 22 -4q25 -9 23.5 -35t-31.5 -90q-25 -55 -32.5 -90t-9.5 -112q-1 -20 -1 -37q1 -76 15 -108q18 -40 73 -56q20 -6 41 -6q57 0 120 42q86 58 121.5 122.5t35.5 162.5q0 228 118 285q37 18 52 18 t37 -21q26 -25 26 -70q0 -49 -30 -122q-19 -46 -24 -83t-5 -138q0 -153 20 -236q12 -51 12 -79q0 -9 -2 -17q-6 -26 -40 -32q-28 -5 -45 13t-33 69q-17 59 -32 76q-10 13 -32 13q-47 0 -147 -65q-73 -49 -97.5 -58.5t-79.5 -9.5q-69 0 -114.5 23.5t-81.5 78.5 q-21 33 -27 61.5t-8 114.5z" />
<glyph unicode="v" horiz-adv-x="831" d="M24 990q15 54 80 55q40 0 72 -35q22 -25 26.5 -39.5t-0.5 -51.5q-4 -33 3 -63t30 -90q38 -101 49 -113q6 -8 22.5 -12t30 -2t13.5 10q0 12 85 104q14 15 78.5 88t92.5 105q96 110 108 122q17 21 46 22.5t44 -16.5q16 -20 -2 -50.5t-61 -58.5q-35 -22 -105.5 -112 t-118.5 -172q-6 -11 -54 -91.5t-85.5 -145t-50.5 -91.5q-11 -21 -21 -27.5t-31 -5.5q-34 2 -60 30q-20 22 -47 120.5t-27 147.5q0 40 -26.5 115.5t-59.5 128.5q-35 56 -35 101q0 14 4 27z" />
<glyph unicode="w" horiz-adv-x="1355" d="M20 913q0 14 23.5 32t49.5 24q5 1 10 1q33 0 75 -46q50 -54 98 -156q32 -66 46.5 -86.5t30.5 -20.5q56 0 152 193q33 68 49.5 91t43.5 36q26 12 39 13.5t29 -7.5q57 -31 70 -129q20 -159 41.5 -213t64.5 -54q23 0 53.5 34.5t45.5 78.5q28 87 107 219t158 224 q33 38 50 49.5t41 11.5q27 0 32.5 -6t5.5 -35q0 -43 -38 -84q-176 -204 -247 -469q-26 -96 -42 -148.5t-31 -93t-30 -55.5t-30 -21.5t-40 -6.5q-50 0 -91.5 45.5t-99.5 162.5q-62 128 -78 164q-14 34 -29 34q-21 0 -45 -63q-31 -79 -48 -111q-23 -46 -23 -71 q0 -38 -23 -71.5t-55 -42.5q-24 -7 -47 -7q-15 -1 -29 3q-35 8 -50 31q-17 27 -45 135q-52 186 -148 333q-46 73 -46 82z" />
<glyph unicode="x" horiz-adv-x="909" d="M20 237q0 32 254 296q89 91 109.5 119.5t20.5 59.5q0 26 -9 45.5t-36 50.5q-41 48 -50 78q-3 11 -3 24q0 22 9 49q13 41 33 54.5t52 2.5q43 -15 92 -135q7 -16 18.5 -23.5t35.5 -8.5q28 -2 41 5.5t36 41.5q32 46 99 112q39 37 59.5 48.5t45.5 11.5q41 0 55 -18t-1 -48 t-56 -61q-56 -42 -113.5 -98t-69.5 -80q-16 -30 -16 -72q0 -45 18 -78q17 -35 91 -68q71 -30 81 -53q7 -20 7 -40q-1 -26 -13 -50q-22 -44 -65 -44q-23 0 -81.5 54t-111.5 124q-25 33 -44 39t-45 -11t-77 -68q-63 -65 -102 -114t-89 -123q-33 -51 -53.5 -69t-44.5 -18 q-20 0 -48.5 24.5t-28.5 40.5z" />
<glyph unicode="y" horiz-adv-x="997" d="M23 -80q12 38 38.5 63.5t97.5 68.5q90 54 169 81t206 46q38 6 53 8.5t38 9.5t29.5 9t17.5 15t12.5 19.5t5 29.5t3 38t-0.5 52q0 30 -0.5 47t-3 33.5t-5.5 23t-11.5 9.5t-16.5 0.5t-24.5 -11.5t-32.5 -19.5t-44 -30.5t-50.5 -27t-60.5 -7q-61 0 -122.5 32t-78.5 73 q-14 35 -14 99q0 92 29 242q22 115 39.5 165.5t44.5 82.5q15 17 52 19.5t53 -13.5q16 -17 11 -43t-37 -85q-29 -53 -42.5 -103t-33.5 -176q-10 -62 -11 -86.5t6.5 -37t30.5 -26.5q34 -21 71 -21q17 0 35 5q55 15 148 85q78 59 115 132t46 187q7 91 24 115t75 24q56 0 74 -21 q18 -20 18 -78v-6q-1 -96 -93 -236q-46 -68 -63 -143t-22 -230q-2 -64 -3.5 -94.5t-6.5 -63t-9.5 -44t-17.5 -25.5t-26 -19t-39 -14q-37 -13 -100 -13q-25 0 -54 2q-35 2 -60 2q-27 0 -43 -3q-30 -5 -120 -40q-125 -49 -162 -88q-26 -26 -42.5 -33.5t-48.5 -7.5 q-35 0 -41.5 4.5t-1.5 22.5z" />
<glyph unicode="z" horiz-adv-x="958" d="M20 355q0 16 80 101q70 76 130 151q130 167 195 240q49 54 49 69q0 10 -26 12q-9 1 -21 0q-21 0 -48 -2q-42 -4 -82 -16q-54 -13 -89 -13q-24 -1 -40 5q-30 11 -30 43q0 10 3 22q9 35 47.5 47.5t151.5 18.5q33 2 72 4.5t62 4t28 1.5h7q26 0 92 -11q58 -10 93.5 -31 t35.5 -46q0 -16 -147 -172q-174 -182 -240.5 -263t-66.5 -114q0 -17 17 -20.5t101 -3.5q118 0 241 24q92 18 156 18q86 0 122 -33q26 -23 25.5 -38.5t-27.5 -40.5q-18 -17 -35 -22t-56 -3q-39 3 -88 3h-26q-64 -1 -312 -8q-120 -3 -190 -3q-82 0 -97 4q-31 5 -59 28.5 t-28 43.5z" />
<glyph unicode="{" horiz-adv-x="587" d="M20 426q0 16 66 84q49 50 79 110t30 106q0 30 -31 107q-41 100 -25.5 175.5t94.5 160.5q38 42 106.5 91.5t115.5 69.5q35 15 64 17q28 0 26 -27q-3 -32 -42 -57l-4 -3q-46 -27 -111.5 -89.5t-76.5 -89.5q-12 -30 -8 -145t20 -208q11 -65 9 -85t-24 -67 q-27 -55 -29.5 -83.5t17.5 -60.5q17 -26 19 -84t-9 -211q-6 -89 -3.5 -109t21.5 -38q44 -39 189 -57q54 -4 54 -24q0 -10 -30.5 -13t-134.5 -1l-165 4l-27 38q-16 25 -24.5 56.5t-16 81t-11.5 70.5q-12 60 1 114q12 49 2 67t-53 25q-32 6 -60 30t-28 45z" />
<glyph unicode="|" />
<glyph unicode="}" horiz-adv-x="581" d="M22 -99q-3 3 5 11q18 18 74 24q69 6 94.5 15.5t61.5 41.5q41 37 44.5 67t-21.5 124q-22 85 -21.5 139.5t22.5 101.5q20 41 19 71.5t-26 94.5q-19 51 -12 116q8 58 14 217q5 114 2 139.5t-26 59.5q-33 47 -123 109q-53 36 -73 55t-20 34q0 27 26.5 26.5t86.5 -27.5 q104 -48 162.5 -103.5t110.5 -154.5q55 -103 -6 -253q-9 -20 -14 -33t-8 -26.5t-4.5 -19.5t0.5 -19t3.5 -18t6.5 -23.5t8 -29.5q13 -52 83 -126q48 -52 62.5 -84.5t-3.5 -51.5t-70 -27q-49 -8 -60 -24t-1 -63q13 -52 13 -95q0 -57 -22 -135t-45 -106l-29 -35h-164 q-145 0 -150 8z" />
<glyph unicode="~" horiz-adv-x="1077" d="M20 634q0 25 12 45.5t49 59.5q56 59 92.5 86t72.5 34q42 11 81 9.5t109 -16.5q86 -17 136.5 -43.5t111.5 -84.5q66 -63 109 -65t118 54q46 35 78.5 46t49.5 -1.5t17 -48.5q0 -32 -63 -91t-117 -77q-87 -31 -157.5 -13t-149.5 91q-71 65 -104.5 82.5t-87.5 17.5 q-58 0 -108 -21.5t-107 -71.5q-42 -37 -74.5 -48.5t-50 3t-17.5 53.5z" />
<glyph unicode="&#xa2;" />
<glyph unicode="&#xa3;" />
<glyph unicode="&#xa7;" />
<glyph unicode="&#xab;" horiz-adv-x="1058" d="M26 799q11 42 36 69.5t107 90.5q54 40 179.5 137.5t150.5 116.5q76 64 79 66q45 38 70 50q36 18 48 18q15 0 27 -16.5t12 -38.5t-27 -50.5t-118 -103.5q-80 -64 -241 -221q-107 -104 -134 -136t-27 -57q0 -23 11 -39.5t44 -43.5q45 -37 79 -71.5t117 -127.5 q70 -79 84.5 -124.5t-22.5 -67.5q-52 -32 -124 65q-52 67 -119 125q-130 114 -170 160t-55 95q-18 62 -7 104zM491 706q0 17 140 158.5t209 193.5q64 48 101.5 55t69.5 -24q27 -25 27 -36q0 -19 -37.5 -58.5t-76.5 -61.5q-58 -33 -127 -102l-73 -70v-69q0 -42 6.5 -64 t28.5 -54q35 -51 85 -86q69 -48 73 -91q3 -32 -36 -38q-8 -1 -16 -1q-47 1 -90 32.5t-97 104.5q-71 93 -114 128q-72 52 -73 83z" />
<glyph unicode="&#xad;" horiz-adv-x="860" d="M20 690q0 21 8 32t30 22q24 12 87 14t273 -2q263 -4 332 -10.5t84 -29.5q16 -25 -15.5 -48t-99.5 -37q-47 -10 -95.5 -11t-148.5 7q-149 11 -191 12t-124 -6q-76 -7 -108 6t-32 51z" />
<glyph unicode="&#xbb;" horiz-adv-x="1034" d="M34 489q-29 29 1 78.5t100 89.5q48 27 107 81.5t76 87.5q17 34 14.5 67.5t-27.5 82.5q-32 59 -88 99q-121 88 -67 142q15 15 32 12.5t67 -27.5q35 -17 57.5 -39t51.5 -66q45 -70 92 -111q30 -25 43 -35.5t28 -29t18.5 -25t2.5 -24t-8 -26.5t-24.5 -32t-35 -40.5 t-51.5 -52.5l-4 -4q-128 -131 -202 -186.5t-121 -55.5q-48 0 -62 14zM323 297q0 23 26 50.5t119 103.5q64 51 229 210q109 106 129 131.5t20 61.5q0 33 -8.5 49.5t-44.5 47.5q-62 54 -154.5 156.5t-112.5 138.5l-22 42l28 30q32 34 59.5 28.5t60.5 -53.5q30 -44 98 -114 t142 -133q70 -59 95.5 -104t26.5 -111q2 -70 -14 -101q-17 -28 -99 -90q-64 -46 -158.5 -121.5t-140.5 -110.5q-70 -54 -137 -109q-39 -34 -71.5 -46t-51.5 -0.5t-19 44.5z" />
<glyph unicode="&#xbf;" />
<glyph unicode="&#xc0;" horiz-adv-x="819" d="M22 250q5 38 101.5 314.5t137.5 372.5q42 96 102.5 192.5t108.5 141.5q65 61 115 54t89 -83q34 -66 46 -123t19 -185q10 -193 21 -292q10 -107 2.5 -269.5t-24.5 -182.5q-17 -21 -45 -17.5t-45 29.5q-20 31 -17 131q3 99 -9 113q-12 16 -191 16q-126 0 -155.5 -4 t-46.5 -22q-25 -26 -48.5 -75.5t-30.5 -87.5q-13 -68 -59 -94q-37 -21 -59 5q-18 21 -12 66zM300 626.5q2 -9.5 13.5 -19.5t26 -14.5t42.5 -11.5q65 -16 124 -13t92 23l40 25l-7 159q-13 347 -33 372q-14 14 -26 14q-34 0 -101 -113.5t-131 -279.5q-17 -42 -25.5 -65 t-12.5 -45t-2 -31.5zM426 1615q0 16 14 19.5t82 2.5l96 -1q90 -97 181 -199l-25 -28q-27 -27 -77 -27q-87 0 -179 79t-92 154z" />
<glyph unicode="&#xc1;" horiz-adv-x="776" d="M21.5 218.5q-6.5 46.5 26.5 131.5q24 63 45 125q136 412 219 570q34 64 101.5 160.5t87.5 109.5q14 9 64 9q51 0 82 -34.5t68 -132.5q28 -73 38 -502.5t-15 -467.5q-12 -20 -41 -14t-49 32q-17 22 -19.5 42t2.5 86q9 94 -6 113q-12 16 -191 16q-126 0 -155 -4t-46 -22 q-45 -50 -86 -168q-20 -59 -34 -77.5t-39 -18.5q-46 0 -52.5 46.5zM306 617q22 -34 127.5 -43.5t162.5 18.5l35 17l-1 139q-3 345 -43 388q-23 25 -40 24t-34 -30q-4 -7 -19.5 -31t-25 -39t-20.5 -36.5t-15 -36.5q-11 -35 -46 -105q-42 -86 -67 -166.5t-14 -98.5z M376.5 1461q9.5 21 64.5 95l62 81l68 1q23 0 36 -1.5t21 -6.5t8.5 -12t-6 -21t-18.5 -31t-32 -44q-59 -79 -115 -106.5t-84 7.5q-14 17 -4.5 38z" />
<glyph unicode="&#xc2;" horiz-adv-x="937" d="M20 225q0 23 103 325t140 387q43 102 124 228t114 144q23 13 70 15q36 0 60 -18t47 -64q34 -66 46 -123t19 -185q10 -193 21 -292q10 -107 2.5 -269.5t-24.5 -182.5q-17 -21 -45 -17.5t-45 29.5q-20 31 -17 131q3 99 -9 113q-12 16 -191 16q-126 0 -155.5 -4t-46.5 -22 q-25 -26 -48.5 -75.5t-30.5 -87.5q-10 -46 -31 -72q-28 -36 -65.5 -27t-37.5 51zM160 1168q0 41 32 67q18 15 195 186q112 109 145 134t63 25q66 0 136 -51t101 -122q30 -66 57 -98q27 -34 27 -60q0 -22 -23 -49t-41 -27q-40 0 -105 131q-30 59 -69 109.5t-55 50.5 q-17 0 -129.5 -94.5t-193.5 -175.5q-39 -40 -60 -54t-43 -14q-26 0 -31.5 6t-5.5 36zM302 626.5q2 -9.5 13.5 -19.5t26 -14.5t42.5 -11.5q65 -16 124 -13t92 23l40 25l-7 159q-13 347 -33 372q-14 14 -26 14q-34 0 -101 -113.5t-131 -279.5q-17 -42 -25.5 -65t-12.5 -45 t-2 -31.5z" />
<glyph unicode="&#xc4;" horiz-adv-x="841" d="M21 230.5q1 21.5 10 59t23.5 84.5t38.5 118q88 256 123 347.5t81 181.5q41 78 110 178.5t92 115.5q14 9 64 9q53 0 88 -41t63 -139q28 -97 37 -507t-16 -451q-11 -18 -40 -12t-48 31q-17 21 -20 40t1 78q6 61 2.5 78t-21.5 35q-18 17 -49 21t-142 5l-162 1l-37 -38 q-34 -35 -61 -119q-25 -78 -42.5 -106t-42.5 -28q-19 0 -30.5 4.5t-17 18.5t-4.5 35.5zM274.5 1496.5q1.5 39.5 22.5 60.5q23 23 64 23q39 0 63.5 -23.5t24.5 -62.5q0 -38 -20 -53.5t-68 -15.5q-52 0 -68 16q-20 16 -18.5 55.5zM313 606q37 -30 133 -35t148 21l35 17l-1 116 q-2 116 -11 250q-5 85 -11 115t-21 46q-23 25 -40 25q-16 0 -58.5 -66.5t-72.5 -137.5q-41 -94 -75 -180q-62 -143 -26 -171zM675 1488.5q13 45.5 51 77.5q18 13 42 13.5t39 -13.5q17 -17 14 -65t-23 -70q-20 -21 -58.5 -24.5t-55.5 13.5q-22 23 -9 68.5z" />
<glyph unicode="&#xc7;" horiz-adv-x="770" d="M22.5 656q-5.5 63 4.5 139q33 238 219 436q58 61 131.5 107t128.5 56q67 11 109 -14.5t42 -78.5q0 -37 -22 -49t-78 -5q-43 5 -61.5 1t-52.5 -27q-52 -36 -119 -109q-196 -211 -150 -435q25 -118 49.5 -148.5t97.5 -30.5q40 0 72.5 9.5t94.5 39.5q76 36 136 49t93 1 t33 -47q0 -27 -37 -43q-89 -37 -174.5 -82.5t-110.5 -69.5q-23 -22 -31 -38.5t-8 -46.5q0 -42 14 -57.5t62 -22.5q46 -10 89 -54q78 -81 55 -186l-13 -57h-140q-115 0 -121 7q-4 6 18 19q12 7 51 27q58 31 63 47q8 20 -23 47t-69 33q-45 9 -74 33q-23 21 -27.5 51.5 t5.5 110.5q9 62 -4.5 80.5t-71.5 26.5q-60 8 -94.5 39.5t-55.5 98.5q-25 80 -30.5 143z" />
<glyph unicode="&#xc8;" horiz-adv-x="847" d="M30 483q43 209 111.5 436.5t102.5 275.5q28 39 75.5 64t137.5 48q65 18 110.5 22.5t122.5 2.5q124 -2 133 -11q8 -10 1.5 -21.5t-26.5 -23.5t-48 -19q-159 -42 -229 -70t-111 -66q-23 -21 -47.5 -54t-35.5 -57q-20 -41 -21 -53t13 -25q13 -13 30 -14t73 8q136 22 166 -23 q13 -21 -12 -45.5t-79.5 -47t-127.5 -37.5q-71 -13 -105 -34q-33 -22 -55 -90.5t-22 -149.5q0 -59 5 -79t23 -37q28 -26 88.5 -21.5t207.5 43.5q61 16 93 22t52.5 4t26 -12t5.5 -32q0 -26 -19 -40t-92 -41q-216 -82 -310.5 -100t-142.5 12q-70 44 -92 106t-2 159zM453 1638 h185l64 -60q69 -67 95 -90q28 -25 26.5 -44t-34.5 -42q-22 -17 -35.5 -18t-51.5 9q-52 13 -123.5 59t-89.5 78q-19 32 -28 71z" />
<glyph unicode="&#xc9;" horiz-adv-x="849" d="M30 483q43 209 111.5 436.5t102.5 275.5q28 38 75 63t138 50q70 18 112.5 22.5t121.5 0.5q122 -4 134 -11q8 -8 0 -20.5t-28.5 -24t-46.5 -18.5q-159 -42 -229 -70t-111 -66q-23 -21 -47.5 -54t-35.5 -57q-20 -41 -21 -53t13 -25q13 -13 30 -14t73 8q136 22 166 -23 q13 -21 -12 -45.5t-79.5 -47t-127.5 -37.5q-71 -13 -105 -34q-33 -22 -55 -90.5t-22 -149.5q0 -59 5 -79t23 -37q28 -26 88.5 -21.5t207.5 43.5q61 16 93 22t52.5 4t26 -12t5.5 -32q0 -26 -19 -40t-92 -41q-216 -82 -310.5 -100t-142.5 12q-70 44 -92 106t-2 159zM337 1424 q-27 31 76 155q35 43 50 50.5t65 7.5q49 1 57.5 -2.5t2.5 -21.5q-17 -56 -113 -147q-50 -48 -83 -58t-55 16z" />
<glyph unicode="&#xca;" horiz-adv-x="960" d="M21.5 234.5q2.5 46.5 23.5 150.5q34 162 88.5 342.5t103.5 290.5q32 72 244 127q64 17 106.5 21.5t112.5 2.5q114 -4 122 -12q9 -9 -4 -28q-17 -28 -233 -84q-117 -31 -188.5 -97.5t-71.5 -144.5v-52l79 9q147 18 175 -12q40 -37 -53 -85t-157 -56q-56 -5 -100 -28 q-38 -23 -61 -89t-23 -151q0 -42 4 -68t17.5 -44.5t33.5 -25t57.5 -5t83.5 11t117 28.5q153 42 171 28q16 -13 15.5 -37.5t-17.5 -44.5q-21 -22 -205.5 -81.5t-250.5 -65.5l-74 -6l-51 54q-41 43 -54 74t-10.5 77.5zM185 1171q0 17 152.5 171.5t219.5 203.5q64 49 91 49.5 t101 -43.5q68 -42 90 -63.5t34 -58.5q13 -42 40 -91q41 -71 21 -117q-15 -34 -52 -19q-25 10 -51 44q-23 29 -47 84.5t-43 83.5q-32 46 -56 51q-35 6 -117 -62q-51 -43 -179 -164q-121 -114 -148 -114q-23 0 -39.5 13.5t-16.5 31.5z" />
<glyph unicode="&#xcb;" horiz-adv-x="845" d="M20 391q0 42 33 194.5t61 243.5q7 22 25.5 86t27.5 92.5t26 73.5t35 80q21 43 38.5 60t62.5 38q87 42 165 59t193 13q122 -4 134 -11q8 -8 0.5 -20.5t-28 -24t-46.5 -18.5q-156 -42 -228 -70t-111 -64q-48 -44 -66.5 -79t-18.5 -82v-49l79 10q148 18 176 -12 q39 -36 -43.5 -78t-167.5 -60q-73 -14 -107 -34q-34 -23 -57 -97.5t-22 -151.5t28 -105q26 -28 84 -26.5t171 33.5q130 37 162.5 42t44.5 -10q21 -25 9 -51t-54 -46q-60 -30 -206.5 -76.5t-197.5 -51.5q-40 -5 -59.5 -0.5t-50.5 24.5q-39 26 -65 74t-27 94zM225 1505 q0 42 18 58.5t64 16.5q64 0 88 -41.5t-14 -83.5q-23 -26 -74 -26q-45 0 -63.5 17t-18.5 59zM632.5 1492q5.5 32 23.5 63q14 22 51.5 25.5t55.5 -14.5q16 -17 13.5 -53.5t-22.5 -57.5q-21 -22 -60.5 -25.5t-55.5 15.5q-11 15 -5.5 47z" />
<glyph unicode="&#xce;" horiz-adv-x="796" d="M21.5 1209.5q5.5 28.5 30.5 48.5q5 4 194 182.5t199 186.5q14 12 38 10t29 -15q5 -14 70 -51q96 -54 127 -144q13 -39 41 -71q22 -27 26 -66.5t-13 -56.5q-32 -32 -76 -0.5t-69 105.5q-17 50 -57.5 99.5t-65.5 49.5q-23 0 -59 -25q-56 -38 -162.5 -135.5t-145.5 -145.5 q-20 -25 -48.5 -30t-45.5 13q-18 17 -12.5 45.5zM171 244q-7 42 0 91t42 192q90 380 134 526q13 38 42 62q61 47 108 0q30 -30 21.5 -89t-61.5 -191q-111 -277 -111 -472q0 -122 -21 -168t-77 -46q-38 0 -52.5 18.5t-24.5 76.5z" />
<glyph unicode="&#xcf;" horiz-adv-x="641" d="M21 236q-8 42 93 449t126 432q21 21 55.5 20t62.5 -23q58 -45 -1 -180q-32 -75 -82 -221q-38 -110 -47 -156t-14 -167q-5 -104 -13.5 -151t-26.5 -66t-57 -22q-77 -8 -96 85zM70.5 1433q13.5 46 56.5 54q31 6 61.5 1.5t46.5 -16.5q17 -13 13.5 -51.5t-22.5 -59.5 q-21 -22 -71.5 -25.5t-66.5 15.5q-31 36 -17.5 82zM489 1411q0 39 15 58q14 16 51 17.5t52 -13.5q16 -17 13.5 -54t-22.5 -58q-36 -38 -72.5 -21.5t-36.5 71.5z" />
<glyph unicode="&#xd1;" />
<glyph unicode="&#xd3;" horiz-adv-x="1095" d="M21 682q4 81 10.5 113.5t27.5 74.5q79 153 194 263q76 73 107 86t113 6q59 -5 87 -1.5t77 22.5q84 33 98 35q35 9 87.5 -2t85.5 -34q68 -47 122 -179t44 -232q-5 -48 -51.5 -177.5t-92.5 -221.5q-25 -48 -88.5 -119t-105.5 -96q-36 -24 -128 -42q-156 -35 -298 11.5 t-211 154.5q-87 135 -78 338zM193.5 652q-4.5 -105 22.5 -178q41 -107 133 -144.5t208 5.5q54 20 124.5 87.5t128.5 155.5q58 87 75.5 145.5t17.5 167.5q0 106 -16 149.5t-67 74.5q-34 21 -113.5 23t-128.5 -16q-118 -43 -210 -121t-136 -171q-34 -73 -38.5 -178zM511 1372 q-16 16 15.5 68.5t119.5 159.5q20 24 35 30.5t51 6.5q37 1 46 -3t9 -21q0 -25 -49.5 -100t-91.5 -113q-36 -32 -75.5 -40t-59.5 12z" />
<glyph unicode="&#xd4;" horiz-adv-x="1095" d="M21 682q4 81 10.5 113.5t27.5 74.5q79 153 194 263q76 73 107 86t113 6q59 -5 87 -1.5t77 22.5q84 33 98 35q35 9 87 -2t86 -34q69 -47 122.5 -179t43.5 -232q-5 -48 -51.5 -177.5t-92.5 -221.5q-25 -48 -88.5 -119t-105.5 -96q-36 -24 -128 -42q-156 -35 -298 11.5 t-211 154.5q-87 135 -78 338zM170 1345q0 30 126 160l124 130l80 2q78 0 78 -10t-38 -46q-39 -35 -174 -163q-138 -129 -153 -129q-17 0 -30 17t-13 39zM193.5 652q-4.5 -105 22.5 -178q41 -107 133 -144.5t208 5.5q54 20 124.5 87.5t128.5 155.5q58 87 75.5 145.5 t17.5 167.5q0 106 -16 149.5t-67 74.5q-34 21 -113.5 23t-128.5 -16q-118 -43 -210 -121t-136 -171q-34 -73 -38.5 -178zM685 1629q-1 2 9 4.5t28.5 3.5t40.5 1q60 0 71 -4t11 -26q0 -46 54 -113q52 -63 -1 -113q-34 -31 -63.5 -7t-84.5 127q-61 115 -65 127z" />
<glyph unicode="&#xd6;" horiz-adv-x="1093" d="M22 634q-6 106 10 165q33 124 147 251q58 66 78 96q27 39 67 63q28 17 50 19.5t84 -2.5q60 -5 88.5 -1.5t76.5 22.5q87 33 96 34q125 30 213 -66q60 -65 100.5 -162.5t40.5 -176.5q0 -101 -79 -290t-163 -286q-58 -68 -170 -106.5t-228 -29.5q-101 7 -157 32t-124 93 q-51 51 -68 78t-32 80q-24 81 -30 187zM188.5 696.5q-11.5 -76.5 0.5 -130.5q4 -18 11 -50t8 -39q5 -25 53 -78.5t81 -70.5q44 -23 109.5 -16.5t130.5 39.5q64 33 97 63.5t98 118.5q89 119 118 224t4 218q-15 72 -37 104.5t-64 44.5q-69 21 -165 6t-176 -61 q-41 -22 -123.5 -108t-102.5 -126q-31 -62 -42.5 -138.5zM341.5 1468.5q3.5 32.5 23.5 58.5q14 18 28.5 24t44.5 6q44 0 60.5 -13.5t16.5 -50.5q0 -41 -26 -64t-71 -23q-50 0 -64 14q-16 16 -12.5 48.5zM756.5 1480.5q-0.5 40.5 13.5 57.5q15 17 64.5 18.5t63.5 -15.5 q11 -15 5.5 -47t-23.5 -62q-15 -23 -53.5 -26.5t-55.5 17.5q-14 17 -14.5 57.5z" />
<glyph unicode="&#xd9;" horiz-adv-x="907" d="M23 762q-8 11 3 76q42 208 64.5 270.5t59.5 71.5q54 13 84 -44q8 -22 5.5 -50.5t-21.5 -117.5q-35 -164 -29.5 -336.5t46.5 -219.5q34 -39 107 -58.5t122 -2.5q43 15 71 62.5t76 189.5l48 145l7 245q5 182 13.5 236t35.5 64q20 8 65 6.5t61 -10.5q40 -22 44.5 -136.5 t-27.5 -299.5q-51 -294 -135 -471q-43 -90 -74.5 -133t-78.5 -74q-32 -21 -55.5 -26.5t-85.5 -4.5q-113 1 -207 46t-146 124q-23 35 -28 68t-10 173q-5 192 -15 207zM282 1612q0 19 13 22.5t84 3.5h98l82 -83q65 -64 78 -91.5t-12 -47.5q-20 -16 -76.5 -13.5t-92.5 20.5 q-71 37 -122.5 92.5t-51.5 96.5z" />
<glyph unicode="&#xda;" horiz-adv-x="905" d="M22 748q-4 112 0.5 158.5t28.5 143.5q28 113 49.5 147t63.5 34q35 0 51.5 -18t17 -59.5t-15.5 -107.5q-14 -58 -19 -119t-5 -188q0 -142 4 -182.5t20 -67.5q28 -46 69 -65t112 -19q53 0 71.5 5t35.5 22q24 26 70 142.5t59 183.5q4 21 14 70t12 59q11 63 9 231 q-2 138 9.5 182t52.5 51q31 6 65.5 -1.5t51.5 -24.5q23 -22 32.5 -69t-0.5 -89q-12 -52 -12 -108q0 -54 -22 -185.5t-43 -200.5q-28 -95 -75.5 -206t-79.5 -157q-155 -223 -505 -30q-45 25 -68.5 71t-35 134.5t-17.5 262.5zM318 1245q-10 15 17 60t103 141q47 59 72 126 l24 66h105l-8 -60q-7 -59 -25.5 -99.5t-66.5 -104.5q-80 -105 -137.5 -138.5t-83.5 9.5z" />
<glyph unicode="&#xdb;" horiz-adv-x="890" d="M20 674q0 232 37.5 371.5t99.5 139.5q104 0 57 -213q-55 -235 -33 -345q14 -65 14 -116q0 -73 35.5 -108.5t128.5 -55.5q52 -12 86.5 -2.5t67.5 45.5q22 26 67.5 145.5t55.5 181.5q20 114 24 139q11 64 12 153t-10 126q-11 38 1 79t41 64q28 22 77 23.5t67 -20.5 q23 -28 21 -173.5t-27 -291.5q-39 -228 -118 -415.5t-155 -231.5q-63 -38 -178.5 -27.5t-210.5 62.5q-93 50 -126.5 148.5t-33.5 321.5zM32 1401q0 40 32 66q41 33 101 97q52 52 70 61.5t68 11.5q67 0 67 -10t-54 -62q-87 -81 -133 -127q-48 -48 -70.5 -63.5t-44.5 -15.5 q-26 0 -31 6t-5 36zM591 1633q0 5 69 5q50 0 60 -4t10 -26q0 -29 29 -65q52 -61 4 -111q-25 -27 -41.5 -24.5t-43.5 37.5q-18 25 -52.5 99t-34.5 89z" />
<glyph unicode="&#xdc;" horiz-adv-x="890" d="M21 666q-1 163 3.5 215.5t25.5 128.5q29 111 51 140q23 32 52.5 33t52.5 -29q20 -25 23 -55t-10 -77q-34 -124 -43 -263.5t12 -238.5q19 -92 46.5 -121t113.5 -50q66 -16 106 3t75 83q60 111 100.5 282t30.5 281q-4 88 -4 144q-1 74 3.5 92.5t27.5 38.5q26 22 66.5 27 t70.5 -11q39 -21 45 -130.5t-15 -251.5t-66.5 -301t-103.5 -270q-92 -176 -205 -194q-91 -14 -211.5 26t-175.5 103q-44 50 -57.5 124t-13.5 271zM173 1491.5q3 32.5 23 58.5q14 18 29 24t45 6q44 0 60.5 -13.5t16.5 -50.5q0 -41 -26 -64t-71 -23q-50 0 -64 14 q-16 16 -13 48.5zM588 1504q-1 41 13 58q15 17 64.5 18t63.5 -16q11 -14 6 -46t-23 -62q-15 -23 -53.5 -27t-55.5 17q-14 17 -15 58z" />
<glyph unicode="&#xdf;" />
<glyph unicode="&#xe0;" horiz-adv-x="688" d="M23 386q10 49 82 147q77 103 126.5 142t130.5 60q67 18 120 6q50 -11 67 2t17 60t-34 98q-36 51 -48 51q-11 0 -113.5 -52t-135.5 -75q-34 -24 -78 -24q-29 0 -36.5 4.5t-7.5 21.5q0 30 21 46q33 29 163 87t176 64q36 5 75 -7t56 -33q39 -50 55.5 -143.5t1.5 -183.5 q-43 -276 -55 -312q-10 -29 -27 -32q-4 -1 -18 -1q-40 0 -50 39.5t3 144.5q6 50 3.5 66t-20.5 35q-23 26 -67 29.5t-82 -16.5q-32 -17 -115 -103t-90 -111q-10 -31 14.5 -66t65.5 -50q44 -17 161 -10q65 4 89 2t24 -11q0 -28 -47.5 -52t-111.5 -31t-128 4q-60 12 -91.5 31.5 t-64.5 65.5q-41 58 -31 107zM299 1462.5q-3 45.5 23 71.5q19 19 34 23.5t39.5 -7.5t54.5 -38.5t84 -80.5q53 -53 81 -85t39 -55t4.5 -35.5t-28.5 -22.5q-33 -16 -59.5 -12.5t-77.5 29.5q-66 33 -99 58.5t-61 65.5q-31 43 -34 88.5z" />
<glyph unicode="&#xe1;" horiz-adv-x="677" d="M20 364q0 35 9 59.5t38 69.5q43 65 111.5 132t121.5 95q54 27 141 28q70 0 98 12t28 43q0 54 -69 120l-37 35l-48 -28q-97 -56 -175.5 -92.5t-98.5 -34.5q-28 4 -42 23q-12 19 9.5 42.5t64.5 37.5q20 6 129.5 58t138.5 58q151 26 206 -147q12 -39 13 -72.5t-9 -125.5 q-11 -110 -23 -235q-9 -96 -24 -113q-14 -17 -59 -17q-28 0 -37.5 5.5t-14.5 23.5q-6 33 11 105q18 73 16.5 100.5t-23.5 52.5q-26 27 -81 27.5t-94 -26.5q-42 -27 -97.5 -81t-69.5 -81q-44 -86 20.5 -132.5t215.5 -36.5q38 2 58 3t32 -1t14.5 -5t1.5 -10q-7 -36 -106 -65 t-170 -16q-199 36 -199 189zM189 1140q7 22 51 83.5t91 114.5q15 17 30 44.5t20 48.5q14 49 26 65q12 13 37 13.5t40 -13.5q22 -22 13.5 -79t-42.5 -116q-44 -76 -115 -148.5t-101 -72.5q-29 0 -43 17t-7 43z" />
<glyph unicode="&#xe2;" horiz-adv-x="815" d="M28 1097q-32 38 79 133q74 61 195 179q50 48 77 70t52.5 39.5t47 16.5t43 -7.5t57.5 -24.5q60 -30 86.5 -55.5t38.5 -63.5q15 -42 54 -101q34 -50 36.5 -77.5t-24.5 -53.5l-26 -24l-40 30q-38 30 -67 94q-32 74 -66 119.5t-57 45.5h-2q-28 -1 -53 -17q-40 -27 -270 -238 l-1 -1h-1l-2 -2q-66 -61 -100.5 -74.5t-56.5 12.5zM40 364q0 35 9 60t37 69q48 71 114 137q79 75 145 101t136 10q34 -7 47 -5t31 19q68 63 -42 168l-36 35l-49 -28q-97 -57 -175 -93t-98 -34q-28 4 -42 23q-12 19 9 42.5t64 37.5q20 6 130 58t139 58q151 26 206 -147 q12 -39 12.5 -73t-9.5 -125q-11 -110 -23 -235q-9 -98 -23 -113q-15 -18 -59 -17.5t-51 18.5q-20 49 11 133q18 50 16 81.5t-24 54.5q-26 27 -81.5 27.5t-94.5 -26.5q-41 -27 -96.5 -81t-69.5 -81q-44 -86 20.5 -132.5t215.5 -36.5q38 2 58 3t32 -1t14.5 -5t1.5 -10 q-7 -36 -106 -65t-170 -16q-199 36 -199 189z" />
<glyph unicode="&#xe4;" horiz-adv-x="727" d="M20 370q0 38 11 62.5t57 84.5q105 142 197 195t194 30q55 -12 72 2q19 16 14.5 56t-30.5 88q-27 50 -52.5 59.5t-62.5 -16.5q-53 -36 -151.5 -83t-120.5 -47q-30 0 -46.5 17.5t-4.5 35.5q11 16 162 91q99 49 137.5 62.5t82.5 13.5q47 1 63.5 -5.5t42.5 -34.5 q32 -34 55 -94.5t24 -113.5q1 -40 -14 -147q-7 -47 -24 -190q-11 -92 -25 -108q-13 -17 -57 -16.5t-50 17.5q-8 15 5 84q23 130 19 151q-3 15 -20 33q-17 17 -33.5 23t-50.5 6q-37 0 -59 -9t-68 -44q-100 -76 -134.5 -147t9.5 -111q29 -26 74.5 -37.5t89 -11t83.5 3t64.5 1 t24.5 -12.5q0 -28 -76.5 -57.5t-150.5 -29.5q-106 -1 -178.5 56.5t-72.5 142.5zM157.5 1291.5q-1.5 42.5 13.5 60.5q17 21 67.5 19t72.5 -24q21 -21 23 -60.5t-18 -55.5q-18 -16 -70.5 -15.5t-69.5 17.5q-17 16 -18.5 58.5zM553.5 1279q2.5 45 25.5 68q20 20 58.5 23 t55.5 -13t13.5 -60.5t-23.5 -70.5q-19 -25 -58 -30t-55 15q-19 23 -16.5 68z" />
<glyph unicode="&#xe7;" horiz-adv-x="690" d="M20 478q2 83 86 255q42 83 71.5 125t88.5 102q93 96 130 107q97 28 172 -6q58 -27 55 -71q-2 -24 -23 -47q-21 -22 -48 -24.5t-52 15.5q-28 22 -55.5 13t-73.5 -56q-93 -96 -147.5 -199t-54.5 -182q0 -40 6.5 -53t32.5 -29q37 -23 161 -24t210 21q78 18 86 13 q25 -25 -78 -78l-36 -18q-140 -64 -145 -102q-4 -27 51 -54q44 -22 65.5 -48t30.5 -67q12 -50 -1.5 -91.5t-50.5 -63.5q-25 -15 -49 -19t-81 -2l-91 4l58 61q35 38 43 58t-6 33t-59 25q-35 11 -48.5 21t-23.5 34q-17 42 -17 80q0 65 -130 140q-79 44 -77 127z" />
<glyph unicode="&#xe8;" horiz-adv-x="753" d="M20 320q0 44 25 132t53 143q73 144 163.5 229t224.5 135q101 37 174.5 -11t73.5 -152q0 -82 -65 -175q-32 -46 -162 -90.5t-232 -44.5q-60 0 -87.5 -23.5t-27.5 -75.5q0 -47 14 -61t99.5 -13.5t171.5 16.5q92 16 143 18q32 0 40.5 -4.5t8.5 -21.5q0 -16 -12.5 -26.5 t-48.5 -25.5q-128 -55 -222 -73t-189 -6q-66 8 -105.5 43t-39.5 87zM277 631q-11 -39 18 -37q4 0 8 1q92 20 119 25q84 17 120.5 35.5t53.5 51.5q16 31 17.5 77t-13.5 61q-29 29 -100.5 -0.5t-145.5 -99.5q-63 -60 -77 -114zM323 1441q27 26 54.5 20.5t66.5 -43.5 q18 -18 133 -125q64 -61 79.5 -94.5t-9.5 -58.5q-16 -16 -69.5 -12.5t-90.5 22.5q-111 57 -162.5 149t-1.5 142z" />
<glyph unicode="&#xe9;" horiz-adv-x="753" d="M20 320q0 44 25 132t53 143q73 144 163.5 229t224.5 135q101 37 174.5 -11t73.5 -152q0 -82 -65 -175q-32 -46 -162 -90.5t-232 -44.5q-60 0 -87.5 -23.5t-27.5 -75.5q0 -47 14 -61t99.5 -13.5t171.5 16.5q92 16 143 18q32 0 40.5 -4.5t8.5 -21.5q0 -16 -12.5 -26.5 t-48.5 -25.5q-128 -55 -222 -73t-189 -6q-66 8 -105.5 43t-39.5 87zM236 1117q7 22 51 83.5t91 114.5q15 17 30 44.5t20 48.5q15 51 25 65q12 13 37 13.5t40 -13.5q15 -15 13.5 -67.5t-18.5 -84.5q-22 -44 -86 -126t-90 -102q-61 -43 -97 -28q-27 13 -16 52zM277 631 q-11 -39 18 -37q4 0 8 1q92 20 119 25q84 17 120.5 35.5t53.5 51.5q16 31 17.5 77t-13.5 61q-29 29 -100.5 -0.5t-145.5 -99.5q-63 -60 -77 -114z" />
<glyph unicode="&#xea;" horiz-adv-x="927" d="M21 340q4 91 67 235t133 219q33 36 105.5 83.5t128.5 70.5q118 49 191 5q58 -36 74 -107.5t-13.5 -147t-95.5 -122.5q-42 -29 -157.5 -59.5t-184.5 -30.5q-58 0 -75 -13.5t-33 -71.5q-10 -39 -7.5 -50.5t23.5 -33.5q21 -20 33 -23t48 5q73 16 190 31.5t147 13.5 q41 -4 44 -23.5t-34 -38.5q-108 -56 -251 -82.5t-222 -5.5q-50 14 -81.5 55.5t-29.5 90.5zM154 1024.5q0 9.5 10 26.5q11 21 97 105.5t216 200.5q85 76 122.5 81.5t122.5 -44.5q46 -27 67.5 -46.5t36.5 -50.5q24 -48 24 -58q0 -7 31 -53q25 -38 26 -84t-23 -61 q-22 -13 -57.5 16.5t-57.5 78.5q-35 74 -48 96t-41 55q-26 31 -36 35t-33 -7q-24 -11 -83 -61t-195 -176q-75 -70 -111 -85.5t-58 11.5q-10 11 -10 20.5zM279 659q-17 -39 2 -48.5t89 1.5q88 15 129.5 29t71.5 39q23 21 29 35.5t6 54.5q0 61 -14 75q-24 24 -91.5 -1 t-134 -79.5t-87.5 -105.5z" />
<glyph unicode="&#xeb;" horiz-adv-x="745" d="M21 340q4 91 67 235t133 219q33 36 105.5 83.5t128.5 70.5q118 49 191 5q58 -36 74 -107.5t-13.5 -147t-95.5 -122.5q-42 -30 -157.5 -60t-186.5 -30q-49 0 -62.5 -5.5t-29.5 -31.5q-23 -39 -22 -75t27 -61q18 -17 31 -19.5t47 5.5q73 16 190 31.5t147 13.5 q41 -4 44 -23.5t-34 -38.5q-108 -56 -251 -82.5t-222 -5.5q-50 14 -81.5 55.5t-29.5 90.5zM169 1139.5q-15 16.5 1 60.5q16 47 37 60q24 18 30 18q20 0 55.5 -22.5t45.5 -42.5q11 -20 8.5 -29.5t-23.5 -30.5q-17 -18 -34 -24t-50 -6q-55 0 -70 16.5zM264 603 q10 -10 123 11.5t151 41.5q50 26 63.5 85t-22.5 92q-29 27 -56.5 23t-86.5 -43q-79 -52 -135.5 -121t-36.5 -89zM569 1179q0 67 54 87q27 12 40.5 9t34.5 -25q25 -26 17 -61q-10 -46 -28.5 -66t-50.5 -20q-36 0 -51.5 17.5t-15.5 58.5z" />
<glyph unicode="&#xee;" horiz-adv-x="819" d="M20 978q0 9 10 26q13 25 147.5 156.5t214.5 196.5q25 21 36.5 30t28 16.5t24.5 8t26.5 -5.5t32 -14t43.5 -26q70 -42 91 -64.5t37 -70.5q20 -59 52 -100q35 -48 35 -56q0 -13 -26.5 -39t-38.5 -26q-20 0 -59 44.5t-50 80.5q-14 43 -49 94q-46 68 -99 41.5t-254 -216.5 q-91 -88 -129.5 -106.5t-62.5 10.5q-10 11 -10 20zM173 422q8 92 44 190.5t91 174.5q22 30 36.5 39t39.5 9q55 0 60.5 -34t-40.5 -94q-25 -32 -63 -121.5t-56 -159.5q-10 -35 -8.5 -50.5t16.5 -41.5q14 -23 27.5 -32.5t35.5 -10.5q39 -4 87 10.5t82 40.5q32 25 46 26.5 t29 -15.5q28 -34 -42 -93t-157 -75q-123 -22 -180.5 38t-47.5 199z" />
<glyph unicode="&#xef;" horiz-adv-x="589" d="M20.5 1149.5q3.5 39.5 22.5 58.5q27 22 61 22.5t62.5 -21.5t28.5 -54t-28 -53.5t-69 -21.5q-50 0 -64 14q-17 16 -13.5 55.5zM45.5 368q-1.5 44 15.5 124q16 76 69 187.5t89 145.5t49 34q11 0 38.5 -25t27.5 -35q0 -7 -58 -104q-92 -152 -113 -299q-9 -64 32 -90 t102.5 -14t113.5 51q32 23 46 25t29 -15q33 -41 -79 -112q-110 -71 -205.5 -60t-135.5 99q-19 44 -20.5 88zM422.5 1107q-17.5 50 17.5 94q20 25 56.5 30t56.5 -14q15 -15 15.5 -42.5t-9.5 -53.5t-29 -45t-40 -19q-50 0 -67.5 50z" />
<glyph unicode="&#xf3;" horiz-adv-x="833" d="M21 374q-5 46 19 137.5t56 151.5q47 85 145.5 157t210.5 103q62 15 119.5 9t106 -34.5t82 -69t46.5 -94.5t1 -111q-10 -52 -65.5 -166t-89.5 -156q-50 -59 -166.5 -107t-214.5 -49q-51 -1 -72 4.5t-54 28.5q-47 33 -83 89.5t-41 106.5zM141 468.5q-16 -84.5 9 -131.5 q41 -79 128.5 -86t193.5 61q109 70 179 192.5t49 207.5q-4 22 -38 64q-21 25 -36.5 30.5t-64.5 5.5q-96 -1 -203 -56.5t-154 -129.5q-47 -73 -63 -157.5zM320 1051q0 10 45.5 72t77.5 96q26 28 65 111q36 79 56 95t31 16q23 0 35 -33t7 -79t-25 -78q-38 -62 -94 -133.5 t-79 -86.5q-38 -25 -78.5 -18.5t-40.5 38.5z" />
<glyph unicode="&#xf4;" horiz-adv-x="886" d="M21 374q-5 46 19 137.5t56 151.5q47 85 145.5 157t210.5 103q100 28 191 -8t137.5 -117t26.5 -175q-10 -52 -65.5 -166t-89.5 -156q-50 -59 -166.5 -107t-214.5 -49q-51 -1 -72 4.5t-54 28.5q-47 33 -83 89.5t-41 106.5zM111 974q0 16 27.5 49t99.5 103q139 135 209 196 q54 47 82.5 60.5t57.5 5.5t84 -45q108 -71 132 -158q10 -33 36 -62q28 -35 28 -58q0 -20 -23.5 -49t-40.5 -29q-20 0 -49.5 37t-44.5 81q-19 59 -60 104t-75 45q-29 0 -79.5 -40t-204.5 -183q-48 -46 -89 -80t-47 -34q-18 0 -30.5 17t-12.5 40zM136 440q-2 -47 10 -88.5 t41.5 -65.5t70 -34t95.5 6q92 25 178.5 100t132.5 169q78 156 -2 249q-21 25 -36 30.5t-65 4.5q-92 -1 -192.5 -48t-147.5 -111q-39 -53 -61 -109t-24 -103z" />
<glyph unicode="&#xf6;" horiz-adv-x="831" d="M20 391q-1 119 61.5 245.5t151.5 186.5q70 48 103 63t102 32q113 29 201 -1.5t136 -115.5q37 -66 35.5 -133t-39.5 -147q-36 -76 -36 -87q0 -9 -45 -80q-89 -133 -274 -183q-103 -28 -167.5 -26t-110.5 34q-47 33 -83 84q-23 32 -29 54.5t-6 73.5zM142 419q0 -56 5.5 -73 t32.5 -42q81 -77 167 -46q66 23 111.5 53.5t103.5 89.5q76 77 101 129t25 129q0 56 -5.5 73t-32.5 43q-26 25 -43 31t-64 5q-75 -1 -155 -36.5t-139 -93.5q-57 -55 -82 -117t-25 -145zM212 1170.5q2 39.5 23 60.5q23 23 64 23q39 0 63 -23.5t24 -62.5q0 -38 -19 -53 q-17 -15 -68.5 -15t-68.5 15q-20 16 -18 55.5zM612 1162.5q13 45.5 51 77.5q18 13 42 13.5t39 -13.5q17 -17 14 -65t-23 -70q-20 -21 -58.5 -24.5t-55.5 13.5q-22 23 -9 68.5z" />
<glyph unicode="&#xf9;" horiz-adv-x="806" d="M20 440q0 78 6 117t27 100q53 155 116 155q39 0 47 -23t-14 -73q-59 -134 -59 -266q0 -63 5 -80t32 -43q48 -46 74.5 -53t76.5 10q55 18 108.5 66t82.5 104q28 56 28 136q0 62 20.5 140.5t43.5 109.5q13 18 49 44q30 19 61.5 20t47.5 -17q17 -21 12.5 -81.5t-29.5 -131.5 q-19 -55 -25 -95t-6 -121q0 -125 18 -193q23 -85 14.5 -124t-50.5 -39q-24 0 -42 38q-36 87 -53.5 110t-47.5 25q-39 3 -64 -19q-22 -22 -93 -67q-47 -31 -70.5 -38t-81.5 -8q-54 0 -77 6t-56 27q-58 38 -79.5 94.5t-21.5 169.5zM167 1397q9 35 30 51q24 16 35 16 q13 0 100 -78q92 -84 126 -109q37 -27 56 -61q12 -21 10 -31t-21 -30q-41 -43 -110 -21.5t-154 101.5q-62 59 -71 94q-10 33 -1 68z" />
<glyph unicode="&#xfa;" horiz-adv-x="823" d="M21 476.5q1 27.5 18 114.5q35 177 97 255q41 50 73 24q18 -15 16.5 -55.5t-22.5 -86.5q-23 -52 -42 -147.5t-12 -123.5q8 -27 49 -75q29 -32 45 -39.5t55 -7.5q53 0 87.5 18t87.5 72q55 56 75 108t27 157q7 96 27.5 150.5t61.5 86.5q42 33 82 21.5t55 -61.5 q8 -23 -29 -140q-43 -138 -43.5 -216t39.5 -270q14 -66 7 -89t-43 -23q-26 0 -50 30.5t-31 73.5q-5 43 -36 72q-24 23 -49 15.5t-92 -58.5q-151 -117 -272.5 -84.5t-168.5 202.5q-13 49 -12 76.5zM354 1074q0 10 42.5 67.5t91.5 115.5q46 57 72 114q32 65 42 79 q17 23 44 5.5t40 -59.5q8 -28 -28 -101.5t-86 -132.5q-55 -64 -55 -72q0 -11 -42.5 -34t-64.5 -23t-39 12.5t-17 28.5z" />
<glyph unicode="&#xfb;" horiz-adv-x="878" d="M20 429q0 48 31 162t57 162q28 50 55.5 69t48.5 2q18 -15 16.5 -58t-23.5 -85q-36 -69 -50 -172t6 -142q25 -47 50.5 -62.5t78.5 -15.5q71 0 101 16q36 18 94.5 83.5t64.5 93.5q2 9 8 37t8.5 43t5.5 45t-1 42q-5 42 22 112.5t63 106.5q31 31 66.5 36.5t55.5 -17.5 q18 -22 13 -93.5t-30 -143.5q-28 -80 -30 -167t21 -206q20 -97 16.5 -136t-32.5 -39q-26 0 -45 23.5t-42 83.5q-18 50 -27.5 59t-44.5 9q-28 0 -46.5 -8t-45.5 -33q-66 -59 -142 -82.5t-144 -5.5q-71 20 -125 104.5t-54 176.5zM102 1018q0 18 33.5 58t127.5 135 q142 147 204 196q45 34 85 34q31 0 95 -32t86 -59q21 -23 73 -126.5t52 -119.5q0 -21 -26 -45l-26 -25l-40 31q-39 30 -67 95q-20 46 -69 105t-66 59q-26 0 -247 -212q-88 -84 -116.5 -104.5t-56.5 -20.5t-35 5t-7 26z" />
<glyph unicode="&#xfc;" horiz-adv-x="813" d="M48 609q26 95 52.5 145t62.5 69q18 10 27.5 10.5t21.5 -9.5q20 -17 15.5 -53t-38.5 -122q-106 -271 49 -364q28 -16 42 -16t57 15q48 16 113.5 71t88.5 99q16 30 16 123q0 90 24 167q20 64 37 90.5t52 49.5q31 19 62.5 20t47.5 -17q20 -23 14.5 -88t-32.5 -130 q-22 -56 -26.5 -88t-0.5 -121q4 -132 20 -226q13 -79 5.5 -105.5t-44.5 -26.5q-42 0 -60 82q-9 43 -34.5 68t-59.5 25q-38 0 -50 -16q-18 -20 -91 -67q-54 -35 -77.5 -42.5t-81.5 -8.5q-79 0 -121.5 24t-77.5 89q-72 134 -13 353zM172 1193.5q2 39.5 23 60.5 q28 23 61.5 22.5t61.5 -26t28 -60.5q0 -37 -19 -52q-17 -15 -68.5 -15t-68.5 15q-20 16 -18 55.5zM572 1186q13 46 51 78q18 13 42 13.5t39 -13.5q17 -17 14 -65t-23 -70q-20 -21 -58.5 -25t-55.5 13q-22 23 -9 69z" />
<glyph unicode="&#x2000;" horiz-adv-x="819" />
<glyph unicode="&#x2001;" horiz-adv-x="1638" />
<glyph unicode="&#x2002;" horiz-adv-x="819" />
<glyph unicode="&#x2003;" horiz-adv-x="1638" />
<glyph unicode="&#x2004;" horiz-adv-x="546" />
<glyph unicode="&#x2005;" horiz-adv-x="409" />
<glyph unicode="&#x2006;" horiz-adv-x="273" />
<glyph unicode="&#x2007;" horiz-adv-x="273" />
<glyph unicode="&#x2008;" horiz-adv-x="204" />
<glyph unicode="&#x2009;" horiz-adv-x="327" />
<glyph unicode="&#x200a;" horiz-adv-x="91" />
<glyph unicode="&#x2010;" horiz-adv-x="860" d="M20 690q0 21 8 32t30 22q24 12 87 14t273 -2q263 -4 332 -10.5t84 -29.5q16 -25 -15.5 -48t-99.5 -37q-47 -10 -95.5 -11t-148.5 7q-149 11 -191 12t-124 -6q-76 -7 -108 6t-32 51z" />
<glyph unicode="&#x2011;" horiz-adv-x="860" d="M20 690q0 21 8 32t30 22q24 12 87 14t273 -2q263 -4 332 -10.5t84 -29.5q16 -25 -15.5 -48t-99.5 -37q-47 -10 -95.5 -11t-148.5 7q-149 11 -191 12t-124 -6q-76 -7 -108 6t-32 51z" />
<glyph unicode="&#x2012;" horiz-adv-x="860" d="M20 690q0 21 8 32t30 22q24 12 87 14t273 -2q263 -4 332 -10.5t84 -29.5q16 -25 -15.5 -48t-99.5 -37q-47 -10 -95.5 -11t-148.5 7q-149 11 -191 12t-124 -6q-76 -7 -108 6t-32 51z" />
<glyph unicode="&#x2013;" horiz-adv-x="1064" d="M20 690q0 21 10 32t37 22q30 12 109 14t341 -2q329 -4 415.5 -10.5t104.5 -29.5q20 -25 -19 -48t-124 -37q-59 -10 -119.5 -11t-185.5 7q-187 11 -239.5 12t-154.5 -6q-95 -7 -135 6t-40 51z" />
<glyph unicode="&#x2014;" horiz-adv-x="2088" d="M20 690q0 21 20 32t75 22q60 12 217.5 14t682.5 -2q657 -4 829.5 -10.5t210.5 -29.5q40 -25 -39 -48t-249 -37q-117 -10 -238.5 -11t-371.5 7q-372 11 -477 12t-310 -6q-190 -7 -270 6t-80 51z" />
<glyph unicode="&#x2019;" horiz-adv-x="419" d="M20 981q0 14 63 95q55 71 78.5 113.5t40.5 100.5t37 68q38 23 88 2t67 -67q21 -56 -37 -159.5t-143 -161.5q-73 -48 -109 -48q-28 0 -56.5 19t-28.5 38z" />
<glyph unicode="&#x201c;" horiz-adv-x="667" d="M24 1153q-8 58 1.5 121.5t29.5 89.5q49 64 63 -22q6 -38 6 -109q0 -64 25 -121.5t68 -93.5q41 -35 33.5 -68t-57.5 -33q-52 0 -104 73t-65 163zM372 1299.5q2 55.5 20 77.5q14 17 52 17t52 -17q15 -21 8 -73q-6 -55 11 -94.5t71 -98.5q62 -67 62 -80q0 -18 -29 -43 t-51 -25q-55 0 -103 60t-79 166q-16 55 -14 110.5z" />
<glyph unicode="&#x201d;" horiz-adv-x="722" d="M25 957q10 30 50 88q94 142 143 262q30 78 45 95q11 14 37 14.5t40 -13.5q17 -17 9.5 -59t-46.5 -138q-80 -202 -155 -284q-22 -25 -62.5 -28.5t-57.5 17.5q-13 16 -3 46zM529 1000q-1 37 12 80q12 45 21 136q11 96 25 114q25 30 70.5 7.5t45.5 -64.5q0 -50 -29 -124.5 t-67 -130t-63 -55.5q-14 0 -15 37z" />
<glyph unicode="&#x2022;" />
<glyph unicode="&#x202f;" horiz-adv-x="327" />
<glyph unicode="&#x205f;" horiz-adv-x="409" />
<glyph unicode="&#x20ac;" horiz-adv-x="1308" d="M20 577q0 20 31.5 28.5t103.5 8.5q63 0 63 18q0 17 -28 17q-26 0 -54 22q-18 15 -20 23.5t8 28.5q29 54 132 54q46 0 80 20t92 79q46 47 141.5 117.5t157.5 102.5q46 22 99 36q47 12 98.5 10t71.5 -18q32 -26 -5 -59q-35 -31 -100 -41q-66 -11 -93 -29 q-64 -46 -115.5 -93t-55.5 -61q-2 -15 14 -16t96 5q128 10 173.5 7.5t60.5 -17.5q17 -17 10 -36t-35 -30q-27 -11 -167 -13q-95 0 -174 -10.5t-104 -26.5q-15 -11 -15 -35q0 -18 14.5 -22.5t84.5 -6.5q101 -1 193 21q81 21 118 12.5t41 -48.5q4 -34 -23 -47.5t-116 -22.5 q-165 -16 -203.5 -23.5t-58.5 -25.5q-27 -24 -27 -63q0 -42 37 -64t97 -16q172 17 344 72q117 38 197.5 44.5t97.5 -19.5q16 -27 -23 -52.5t-77 -31.5q-43 -5 -207 -58q-159 -52 -252 -70q-67 -13 -94.5 -13t-85.5 14q-169 36 -229 121q-52 71 -81 93.5t-67 22.5 q-70 0 -108 24t-38 67z" />
<glyph unicode="&#x25fc;" horiz-adv-x="1064" d="M0 0v1065h1065v-1065h-1065z" />
</font>
</defs>
</svg>
